<?xml version="1.0" encoding="UTF-8" standalone="no"?>
<!DOCTYPE svg PUBLIC "-//W3C//DTD SVG 1.1//EN"
 "http://www.w3.org/Graphics/SVG/1.1/DTD/svg11.dtd">
<!-- Generated by graphviz version 2.40.1 (20161225.0304)
 -->
<!-- Title: Tree Pages: 1 -->
<svg width="458pt" height="144pt"
 viewBox="0.00 0.00 458.38 144.00" xmlns="http://www.w3.org/2000/svg" xmlns:xlink="http://www.w3.org/1999/xlink">
<g id="graph0" class="graph" transform="scale(1 1) rotate(0) translate(4 140)">
<title>Tree</title>
<polygon fill="#ffffff" stroke="transparent" points="-4,4 -4,-140 454.375,-140 454.375,4 -4,4"/>
<!-- 7602727685 -->
<g id="node1" class="node">
<title>7602727685</title>
<polygon fill="none" stroke="#000000" points="283.1192,-136 58.7558,-136 58.7558,-72 283.1192,-72 283.1192,-136"/>
<text text-anchor="middle" x="170.9375" y="-120.8" font-family="Times,serif" font-size="14.00" fill="#000000">X[From] &lt; david.forster@enron.com</text>
<text text-anchor="middle" x="170.9375" y="-106.8" font-family="Times,serif" font-size="14.00" fill="#000000">gini = 0.23958762886597942</text>
<text text-anchor="middle" x="170.9375" y="-92.8" font-family="Times,serif" font-size="14.00" fill="#000000">samples = 100</text>
<text text-anchor="middle" x="170.9375" y="-78.8" font-family="Times,serif" font-size="14.00" fill="#000000">distribution = [3, 97]</text>
</g>
<!-- 4726025217 -->
<g id="node2" class="node">
<title>4726025217</title>
<polygon fill="none" stroke="#000000" points="107.8126,-36 .0624,-36 .0624,0 107.8126,0 107.8126,-36"/>
<text text-anchor="middle" x="53.9375" y="-20.8" font-family="Times,serif" font-size="14.00" fill="#000000">samples = 3</text>
<text text-anchor="middle" x="53.9375" y="-6.8" font-family="Times,serif" font-size="14.00" fill="#000000">ratio = [0.0, 1.0]</text>
</g>
<!-- 7602727685&#45;&gt;4726025217 -->
<g id="edge1" class="edge">
<title>7602727685&#45;&gt;4726025217</title>
<path fill="none" stroke="#000000" d="M127.371,-71.9768C113.9628,-62.1212 99.4329,-51.441 86.8639,-42.2023"/>
<polygon fill="#000000" stroke="#000000" points="88.644,-39.167 78.5136,-36.0644 84.4981,-44.8072 88.644,-39.167"/>
<text text-anchor="middle" x="89.9754" y="-56.8237" font-family="Times,serif" font-size="14.00" fill="#000000">True</text>
</g>
<!-- 2367977435 -->
<g id="node3" class="node">
<title>2367977435</title>
<polygon fill="none" stroke="#000000" points="450.3125,-36 125.5625,-36 125.5625,0 450.3125,0 450.3125,-36"/>
<text text-anchor="middle" x="287.9375" y="-20.8" font-family="Times,serif" font-size="14.00" fill="#000000">samples = 97</text>
<text text-anchor="middle" x="287.9375" y="-6.8" font-family="Times,serif" font-size="14.00" fill="#000000">ratio = [0.8556701030927835, 0.14432989690721648]</text>
</g>
<!-- 7602727685&#45;&gt;2367977435 -->
<g id="edge2" class="edge">
<title>7602727685&#45;&gt;2367977435</title>
<path fill="none" stroke="#000000" d="M214.504,-71.9768C227.9122,-62.1212 242.4421,-51.441 255.0111,-42.2023"/>
<polygon fill="#000000" stroke="#000000" points="257.3769,-44.8072 263.3614,-36.0644 253.231,-39.167 257.3769,-44.8072"/>
<text text-anchor="middle" x="224.1526" y="-56.8237" font-family="Times,serif" font-size="14.00" fill="#000000">False</text>
</g>
</g>
</svg>
