<?xml version="1.0" encoding="UTF-8" standalone="no"?>
<!DOCTYPE svg PUBLIC "-//W3C//DTD SVG 1.1//EN"
 "http://www.w3.org/Graphics/SVG/1.1/DTD/svg11.dtd">
<!-- Generated by graphviz version 2.36.0 (20140111.2315)
 -->
<!-- Title: Tree Pages: 1 -->
<svg width="459pt" height="150pt"
 viewBox="0.00 0.00 459.00 150.00" xmlns="http://www.w3.org/2000/svg" xmlns:xlink="http://www.w3.org/1999/xlink">
<g id="graph0" class="graph" transform="scale(1 1) rotate(0) translate(4 146)">
<title>Tree</title>
<polygon fill="white" stroke="none" points="-4,4 -4,-146 455,-146 455,4 -4,4"/>
<!-- 7602727685 -->
<g id="node1" class="node"><title>7602727685</title>
<polygon fill="none" stroke="black" points="283.25,-142 58.75,-142 58.75,-74 283.25,-74 283.25,-142"/>
<text text-anchor="middle" x="171" y="-126.8" font-family="Times,serif" font-size="14.00">X[From] &lt; david.forster@enron.com</text>
<text text-anchor="middle" x="171" y="-111.8" font-family="Times,serif" font-size="14.00">gini = 0.23958762886597942</text>
<text text-anchor="middle" x="171" y="-96.8" font-family="Times,serif" font-size="14.00">samples = 100</text>
<text text-anchor="middle" x="171" y="-81.8" font-family="Times,serif" font-size="14.00">distribution = [3, 97]</text>
</g>
<!-- 4726025217 -->
<g id="node2" class="node"><title>4726025217</title>
<polygon fill="none" stroke="black" points="108,-38 0,-38 0,-0 108,-0 108,-38"/>
<text text-anchor="middle" x="54" y="-22.8" font-family="Times,serif" font-size="14.00">samples = 3</text>
<text text-anchor="middle" x="54" y="-7.8" font-family="Times,serif" font-size="14.00">ratio = [0.0, 1.0]</text>
</g>
<!-- 7602727685&#45;&gt;4726025217 -->
<g id="edge1" class="edge"><title>7602727685&#45;&gt;4726025217</title>
<path fill="none" stroke="black" d="M126.434,-73.8608C113.211,-64.0288 98.9803,-53.4469 86.6623,-44.2873"/>
<polygon fill="black" stroke="black" points="88.5889,-41.3584 78.4758,-38.2 84.412,-46.9757 88.5889,-41.3584"/>
<text text-anchor="middle" x="88.9261" y="-59.8091" font-family="Times,serif" font-size="14.00">True</text>
</g>
<!-- 2367977435 -->
<g id="node3" class="node"><title>2367977435</title>
<polygon fill="none" stroke="black" points="451.25,-38 126.75,-38 126.75,-0 451.25,-0 451.25,-38"/>
<text text-anchor="middle" x="289" y="-22.8" font-family="Times,serif" font-size="14.00">samples = 97</text>
<text text-anchor="middle" x="289" y="-7.8" font-family="Times,serif" font-size="14.00">ratio = [0.8556701030927835, 0.14432989690721648]</text>
</g>
<!-- 7602727685&#45;&gt;2367977435 -->
<g id="edge2" class="edge"><title>7602727685&#45;&gt;2367977435</title>
<path fill="none" stroke="black" d="M215.947,-73.8608C229.283,-64.0288 243.635,-53.4469 256.059,-44.2873"/>
<polygon fill="black" stroke="black" points="258.343,-46.9514 264.315,-38.2 254.189,-41.3172 258.343,-46.9514"/>
<text text-anchor="middle" x="225.16" y="-59.8091" font-family="Times,serif" font-size="14.00">False</text>
</g>
</g>
</svg>
