<?xml version="1.0" encoding="UTF-8" standalone="no"?>
<!DOCTYPE svg PUBLIC "-//W3C//DTD SVG 1.1//EN"
 "http://www.w3.org/Graphics/SVG/1.1/DTD/svg11.dtd">
<!-- Generated by graphviz version 2.40.1 (20161225.0304)
 -->
<!-- Title: Tree Pages: 1 -->
<svg width="1374pt" height="344pt"
 viewBox="0.00 0.00 1374.38 344.00" xmlns="http://www.w3.org/2000/svg" xmlns:xlink="http://www.w3.org/1999/xlink">
<g id="graph0" class="graph" transform="scale(1 1) rotate(0) translate(4 340)">
<title>Tree</title>
<polygon fill="#ffffff" stroke="transparent" points="-4,4 -4,-340 1370.375,-340 1370.375,4 -4,4"/>
<!-- 1627041018 -->
<g id="node1" class="node">
<title>1627041018</title>
<polygon fill="none" stroke="#000000" points="1058.1124,-336 882.7626,-336 882.7626,-272 1058.1124,-272 1058.1124,-336"/>
<text text-anchor="middle" x="970.4375" y="-320.8" font-family="Times,serif" font-size="14.00" fill="#000000">X[10] &lt; 0.1734</text>
<text text-anchor="middle" x="970.4375" y="-306.8" font-family="Times,serif" font-size="14.00" fill="#000000">gini = 0.3866231853353914</text>
<text text-anchor="middle" x="970.4375" y="-292.8" font-family="Times,serif" font-size="14.00" fill="#000000">samples = 188</text>
<text text-anchor="middle" x="970.4375" y="-278.8" font-family="Times,serif" font-size="14.00" fill="#000000">distribution = [74, 114]</text>
</g>
<!-- 6914585879 -->
<g id="node2" class="node">
<title>6914585879</title>
<polygon fill="none" stroke="#000000" points="829.1124,-236 653.7626,-236 653.7626,-172 829.1124,-172 829.1124,-236"/>
<text text-anchor="middle" x="741.4375" y="-220.8" font-family="Times,serif" font-size="14.00" fill="#000000">X[3] &lt; 0.0525</text>
<text text-anchor="middle" x="741.4375" y="-206.8" font-family="Times,serif" font-size="14.00" fill="#000000">gini = 0.1908688349366316</text>
<text text-anchor="middle" x="741.4375" y="-192.8" font-family="Times,serif" font-size="14.00" fill="#000000">samples = 74</text>
<text text-anchor="middle" x="741.4375" y="-178.8" font-family="Times,serif" font-size="14.00" fill="#000000">distribution = [59, 15]</text>
</g>
<!-- 1627041018&#45;&gt;6914585879 -->
<g id="edge1" class="edge">
<title>1627041018&#45;&gt;6914585879</title>
<path fill="none" stroke="#000000" d="M897.0356,-271.9467C873.8216,-261.8096 848.0089,-250.5377 824.1872,-240.1352"/>
<polygon fill="#000000" stroke="#000000" points="825.3817,-236.8377 814.8166,-236.0433 822.5803,-243.2528 825.3817,-236.8377"/>
<text text-anchor="middle" x="842.6623" y="-256.6673" font-family="Times,serif" font-size="14.00" fill="#000000">True</text>
</g>
<!-- 6397634873 -->
<g id="node3" class="node">
<title>6397634873</title>
<polygon fill="none" stroke="#000000" points="1173.1124,-236 997.7626,-236 997.7626,-172 1173.1124,-172 1173.1124,-236"/>
<text text-anchor="middle" x="1085.4375" y="-220.8" font-family="Times,serif" font-size="14.00" fill="#000000">X[44] &lt; 0.2662</text>
<text text-anchor="middle" x="1085.4375" y="-206.8" font-family="Times,serif" font-size="14.00" fill="#000000">gini = 0.3526099198613819</text>
<text text-anchor="middle" x="1085.4375" y="-192.8" font-family="Times,serif" font-size="14.00" fill="#000000">samples = 114</text>
<text text-anchor="middle" x="1085.4375" y="-178.8" font-family="Times,serif" font-size="14.00" fill="#000000">distribution = [81, 33]</text>
</g>
<!-- 1627041018&#45;&gt;6397634873 -->
<g id="edge2" class="edge">
<title>1627041018&#45;&gt;6397634873</title>
<path fill="none" stroke="#000000" d="M1007.4572,-271.8089C1018.0245,-262.62 1029.6532,-252.508 1040.6321,-242.9612"/>
<polygon fill="#000000" stroke="#000000" points="1043.2377,-245.3337 1048.4871,-236.1308 1038.6444,-240.0515 1043.2377,-245.3337"/>
<text text-anchor="middle" x="1013.058" y="-256.8901" font-family="Times,serif" font-size="14.00" fill="#000000">False</text>
</g>
<!-- 8928110768 -->
<g id="node4" class="node">
<title>8928110768</title>
<polygon fill="none" stroke="#000000" points="487.6124,-136 305.2626,-136 305.2626,-72 487.6124,-72 487.6124,-136"/>
<text text-anchor="middle" x="396.4375" y="-120.8" font-family="Times,serif" font-size="14.00" fill="#000000">X[0] &lt; 0.0412</text>
<text text-anchor="middle" x="396.4375" y="-106.8" font-family="Times,serif" font-size="14.00" fill="#000000">gini = 0.06541778174249183</text>
<text text-anchor="middle" x="396.4375" y="-92.8" font-family="Times,serif" font-size="14.00" fill="#000000">samples = 59</text>
<text text-anchor="middle" x="396.4375" y="-78.8" font-family="Times,serif" font-size="14.00" fill="#000000">distribution = [57, 2]</text>
</g>
<!-- 6914585879&#45;&gt;8928110768 -->
<g id="edge3" class="edge">
<title>6914585879&#45;&gt;8928110768</title>
<path fill="none" stroke="#000000" d="M653.4868,-178.507C605.8543,-164.7005 546.795,-147.5819 497.3026,-133.2363"/>
<polygon fill="#000000" stroke="#000000" points="498.117,-129.8283 487.5379,-130.4059 496.1681,-136.5516 498.117,-129.8283"/>
<text text-anchor="middle" x="557.4431" y="-157.228" font-family="Times,serif" font-size="14.00" fill="#000000">True</text>
</g>
<!-- 1903016023 -->
<g id="node5" class="node">
<title>1903016023</title>
<polygon fill="none" stroke="#000000" points="829.1124,-136 653.7626,-136 653.7626,-72 829.1124,-72 829.1124,-136"/>
<text text-anchor="middle" x="741.4375" y="-120.8" font-family="Times,serif" font-size="14.00" fill="#000000">X[44] &lt; 0.1675</text>
<text text-anchor="middle" x="741.4375" y="-106.8" font-family="Times,serif" font-size="14.00" fill="#000000">gini = 0.1904761904761905</text>
<text text-anchor="middle" x="741.4375" y="-92.8" font-family="Times,serif" font-size="14.00" fill="#000000">samples = 15</text>
<text text-anchor="middle" x="741.4375" y="-78.8" font-family="Times,serif" font-size="14.00" fill="#000000">distribution = [7, 8]</text>
</g>
<!-- 6914585879&#45;&gt;1903016023 -->
<g id="edge4" class="edge">
<title>6914585879&#45;&gt;1903016023</title>
<path fill="none" stroke="#000000" d="M741.4375,-171.8089C741.4375,-163.6906 741.4375,-154.8517 741.4375,-146.3186"/>
<polygon fill="#000000" stroke="#000000" points="744.9376,-146.1307 741.4375,-136.1308 737.9376,-146.1308 744.9376,-146.1307"/>
<text text-anchor="middle" x="726.6616" y="-156.7724" font-family="Times,serif" font-size="14.00" fill="#000000">False</text>
</g>
<!-- 9907503828 -->
<g id="node6" class="node">
<title>9907503828</title>
<polygon fill="none" stroke="#000000" points="1176.6124,-136 994.2626,-136 994.2626,-72 1176.6124,-72 1176.6124,-136"/>
<text text-anchor="middle" x="1085.4375" y="-120.8" font-family="Times,serif" font-size="14.00" fill="#000000">X[35] &lt; 0.5564</text>
<text text-anchor="middle" x="1085.4375" y="-106.8" font-family="Times,serif" font-size="14.00" fill="#000000">gini = 0.35099715099715095</text>
<text text-anchor="middle" x="1085.4375" y="-92.8" font-family="Times,serif" font-size="14.00" fill="#000000">samples = 81</text>
<text text-anchor="middle" x="1085.4375" y="-78.8" font-family="Times,serif" font-size="14.00" fill="#000000">distribution = [65, 16]</text>
</g>
<!-- 6397634873&#45;&gt;9907503828 -->
<g id="edge5" class="edge">
<title>6397634873&#45;&gt;9907503828</title>
<path fill="none" stroke="#000000" d="M1085.4375,-171.8089C1085.4375,-163.6906 1085.4375,-154.8517 1085.4375,-146.3186"/>
<polygon fill="#000000" stroke="#000000" points="1088.9376,-146.1307 1085.4375,-136.1308 1081.9376,-146.1308 1088.9376,-146.1307"/>
<text text-anchor="middle" x="1072.4663" y="-156.7724" font-family="Times,serif" font-size="14.00" fill="#000000">True</text>
</g>
<!-- 4901246806 -->
<g id="node7" class="node">
<title>4901246806</title>
<polygon fill="none" stroke="#000000" points="1302.3126,-122 1194.5624,-122 1194.5624,-86 1302.3126,-86 1302.3126,-122"/>
<text text-anchor="middle" x="1248.4375" y="-106.8" font-family="Times,serif" font-size="14.00" fill="#000000">samples = 33</text>
<text text-anchor="middle" x="1248.4375" y="-92.8" font-family="Times,serif" font-size="14.00" fill="#000000">ratio = [0.0, 1.0]</text>
</g>
<!-- 6397634873&#45;&gt;4901246806 -->
<g id="edge6" class="edge">
<title>6397634873&#45;&gt;4901246806</title>
<path fill="none" stroke="#000000" d="M1137.909,-171.8089C1161.4664,-157.3565 1188.746,-140.6206 1210.3095,-127.3914"/>
<polygon fill="#000000" stroke="#000000" points="1212.1787,-130.3509 1218.8722,-122.1382 1208.5181,-124.3843 1212.1787,-130.3509"/>
<text text-anchor="middle" x="1163.5779" y="-149.7961" font-family="Times,serif" font-size="14.00" fill="#000000">False</text>
</g>
<!-- 6581939416 -->
<g id="node8" class="node">
<title>6581939416</title>
<polygon fill="none" stroke="#000000" points="324.8125,-36 .0625,-36 .0625,0 324.8125,0 324.8125,-36"/>
<text text-anchor="middle" x="162.4375" y="-20.8" font-family="Times,serif" font-size="14.00" fill="#000000">samples = 57</text>
<text text-anchor="middle" x="162.4375" y="-6.8" font-family="Times,serif" font-size="14.00" fill="#000000">ratio = [0.9649122807017544, 0.03508771929824561]</text>
</g>
<!-- 8928110768&#45;&gt;6581939416 -->
<g id="edge7" class="edge">
<title>8928110768&#45;&gt;6581939416</title>
<path fill="none" stroke="#000000" d="M309.3045,-71.9768C279.9096,-61.1735 247.819,-49.3795 221.1533,-39.5793"/>
<polygon fill="#000000" stroke="#000000" points="222.1832,-36.229 211.5896,-36.0644 219.7684,-42.7993 222.1832,-36.229"/>
<text text-anchor="middle" x="247.7183" y="-56.9097" font-family="Times,serif" font-size="14.00" fill="#000000">True</text>
</g>
<!-- 7038894081 -->
<g id="node9" class="node">
<title>7038894081</title>
<polygon fill="none" stroke="#000000" points="450.3126,-36 342.5624,-36 342.5624,0 450.3126,0 450.3126,-36"/>
<text text-anchor="middle" x="396.4375" y="-20.8" font-family="Times,serif" font-size="14.00" fill="#000000">samples = 2</text>
<text text-anchor="middle" x="396.4375" y="-6.8" font-family="Times,serif" font-size="14.00" fill="#000000">ratio = [0.0, 1.0]</text>
</g>
<!-- 8928110768&#45;&gt;7038894081 -->
<g id="edge8" class="edge">
<title>8928110768&#45;&gt;7038894081</title>
<path fill="none" stroke="#000000" d="M396.4375,-71.9768C396.4375,-63.609 396.4375,-54.647 396.4375,-46.4774"/>
<polygon fill="#000000" stroke="#000000" points="399.9376,-46.3107 396.4375,-36.3108 392.9376,-46.3108 399.9376,-46.3107"/>
<text text-anchor="middle" x="381.6616" y="-56.7267" font-family="Times,serif" font-size="14.00" fill="#000000">False</text>
</g>
<!-- 4824427798 -->
<g id="node10" class="node">
<title>4824427798</title>
<polygon fill="none" stroke="#000000" points="786.3125,-36 468.5625,-36 468.5625,0 786.3125,0 786.3125,-36"/>
<text text-anchor="middle" x="627.4375" y="-20.8" font-family="Times,serif" font-size="14.00" fill="#000000">samples = 7</text>
<text text-anchor="middle" x="627.4375" y="-6.8" font-family="Times,serif" font-size="14.00" fill="#000000">ratio = [0.7142857142857143, 0.2857142857142857]</text>
</g>
<!-- 1903016023&#45;&gt;4824427798 -->
<g id="edge9" class="edge">
<title>1903016023&#45;&gt;4824427798</title>
<path fill="none" stroke="#000000" d="M698.9881,-71.9768C685.9237,-62.1212 671.7663,-51.441 659.5197,-42.2023"/>
<polygon fill="#000000" stroke="#000000" points="661.4744,-39.2928 651.3834,-36.0644 657.2587,-44.881 661.4744,-39.2928"/>
<text text-anchor="middle" x="662.2187" y="-56.8237" font-family="Times,serif" font-size="14.00" fill="#000000">True</text>
</g>
<!-- 7986621351 -->
<g id="node11" class="node">
<title>7986621351</title>
<polygon fill="none" stroke="#000000" points="912.3126,-36 804.5624,-36 804.5624,0 912.3126,0 912.3126,-36"/>
<text text-anchor="middle" x="858.4375" y="-20.8" font-family="Times,serif" font-size="14.00" fill="#000000">samples = 8</text>
<text text-anchor="middle" x="858.4375" y="-6.8" font-family="Times,serif" font-size="14.00" fill="#000000">ratio = [0.0, 1.0]</text>
</g>
<!-- 1903016023&#45;&gt;7986621351 -->
<g id="edge10" class="edge">
<title>1903016023&#45;&gt;7986621351</title>
<path fill="none" stroke="#000000" d="M785.004,-71.9768C798.4122,-62.1212 812.9421,-51.441 825.5111,-42.2023"/>
<polygon fill="#000000" stroke="#000000" points="827.8769,-44.8072 833.8614,-36.0644 823.731,-39.167 827.8769,-44.8072"/>
<text text-anchor="middle" x="794.6526" y="-56.8237" font-family="Times,serif" font-size="14.00" fill="#000000">False</text>
</g>
<!-- 9105689603 -->
<g id="node12" class="node">
<title>9105689603</title>
<polygon fill="none" stroke="#000000" points="1240.8125,-36 930.0625,-36 930.0625,0 1240.8125,0 1240.8125,-36"/>
<text text-anchor="middle" x="1085.4375" y="-20.8" font-family="Times,serif" font-size="14.00" fill="#000000">samples = 65</text>
<text text-anchor="middle" x="1085.4375" y="-6.8" font-family="Times,serif" font-size="14.00" fill="#000000">ratio = [0.3230769230769231, 0.676923076923077]</text>
</g>
<!-- 9907503828&#45;&gt;9105689603 -->
<g id="edge11" class="edge">
<title>9907503828&#45;&gt;9105689603</title>
<path fill="none" stroke="#000000" d="M1085.4375,-71.9768C1085.4375,-63.609 1085.4375,-54.647 1085.4375,-46.4774"/>
<polygon fill="#000000" stroke="#000000" points="1088.9376,-46.3107 1085.4375,-36.3108 1081.9376,-46.3108 1088.9376,-46.3107"/>
<text text-anchor="middle" x="1072.4663" y="-56.7267" font-family="Times,serif" font-size="14.00" fill="#000000">True</text>
</g>
<!-- 7896827318 -->
<g id="node13" class="node">
<title>7896827318</title>
<polygon fill="none" stroke="#000000" points="1366.3126,-36 1258.5624,-36 1258.5624,0 1366.3126,0 1366.3126,-36"/>
<text text-anchor="middle" x="1312.4375" y="-20.8" font-family="Times,serif" font-size="14.00" fill="#000000">samples = 16</text>
<text text-anchor="middle" x="1312.4375" y="-6.8" font-family="Times,serif" font-size="14.00" fill="#000000">ratio = [1.0, 0.0]</text>
</g>
<!-- 9907503828&#45;&gt;7896827318 -->
<g id="edge12" class="edge">
<title>9907503828&#45;&gt;7896827318</title>
<path fill="none" stroke="#000000" d="M1169.9639,-71.9768C1198.3545,-61.2209 1229.3371,-49.483 1255.1375,-39.7084"/>
<polygon fill="#000000" stroke="#000000" points="1256.6444,-42.8803 1264.7558,-36.0644 1254.1644,-36.3343 1256.6444,-42.8803"/>
<text text-anchor="middle" x="1202.4817" y="-56.8594" font-family="Times,serif" font-size="14.00" fill="#000000">False</text>
</g>
</g>
</svg>
