<?xml version="1.0" encoding="UTF-8" standalone="no"?>
<!DOCTYPE svg PUBLIC "-//W3C//DTD SVG 1.1//EN"
 "http://www.w3.org/Graphics/SVG/1.1/DTD/svg11.dtd">
<!-- Generated by graphviz version 2.40.1 (20161225.0304)
 -->
<!-- Title: Tree Pages: 1 -->
<svg width="1434pt" height="344pt"
 viewBox="0.00 0.00 1434.49 344.00" xmlns="http://www.w3.org/2000/svg" xmlns:xlink="http://www.w3.org/1999/xlink">
<g id="graph0" class="graph" transform="scale(1 1) rotate(0) translate(4 340)">
<title>Tree</title>
<polygon fill="#ffffff" stroke="transparent" points="-4,4 -4,-340 1430.4854,-340 1430.4854,4 -4,4"/>
<!-- 2974850473 -->
<g id="node1" class="node">
<title>2974850473</title>
<polygon fill="none" stroke="#000000" points="1098.1676,-336 922.8178,-336 922.8178,-272 1098.1676,-272 1098.1676,-336"/>
<text text-anchor="middle" x="1010.4927" y="-320.8" font-family="Times,serif" font-size="14.00" fill="#000000">X[10] &lt; 0.1734</text>
<text text-anchor="middle" x="1010.4927" y="-306.8" font-family="Times,serif" font-size="14.00" fill="#000000">gini = 0.3866231853353914</text>
<text text-anchor="middle" x="1010.4927" y="-292.8" font-family="Times,serif" font-size="14.00" fill="#000000">samples = 188</text>
<text text-anchor="middle" x="1010.4927" y="-278.8" font-family="Times,serif" font-size="14.00" fill="#000000">distribution = [74, 114]</text>
</g>
<!-- 7062461470 -->
<g id="node2" class="node">
<title>7062461470</title>
<polygon fill="none" stroke="#000000" points="859.1676,-236 683.8178,-236 683.8178,-172 859.1676,-172 859.1676,-236"/>
<text text-anchor="middle" x="771.4927" y="-220.8" font-family="Times,serif" font-size="14.00" fill="#000000">X[3] &lt; 0.0525</text>
<text text-anchor="middle" x="771.4927" y="-206.8" font-family="Times,serif" font-size="14.00" fill="#000000">gini = 0.1908688349366316</text>
<text text-anchor="middle" x="771.4927" y="-192.8" font-family="Times,serif" font-size="14.00" fill="#000000">samples = 74</text>
<text text-anchor="middle" x="771.4927" y="-178.8" font-family="Times,serif" font-size="14.00" fill="#000000">distribution = [59, 15]</text>
</g>
<!-- 2974850473&#45;&gt;7062461470 -->
<g id="edge1" class="edge">
<title>2974850473&#45;&gt;7062461470</title>
<path fill="none" stroke="#000000" d="M933.8854,-271.9467C909.5505,-261.7648 882.4794,-250.438 857.526,-239.9972"/>
<polygon fill="#000000" stroke="#000000" points="858.6522,-236.6744 848.0762,-236.0433 855.9502,-243.132 858.6522,-236.6744"/>
<text text-anchor="middle" x="877.8125" y="-256.7125" font-family="Times,serif" font-size="14.00" fill="#000000">True</text>
</g>
<!-- 1125776940 -->
<g id="node3" class="node">
<title>1125776940</title>
<polygon fill="none" stroke="#000000" points="1218.1676,-236 1042.8178,-236 1042.8178,-172 1218.1676,-172 1218.1676,-236"/>
<text text-anchor="middle" x="1130.4927" y="-220.8" font-family="Times,serif" font-size="14.00" fill="#000000">X[44] &lt; 0.2662</text>
<text text-anchor="middle" x="1130.4927" y="-206.8" font-family="Times,serif" font-size="14.00" fill="#000000">gini = 0.3526099198613819</text>
<text text-anchor="middle" x="1130.4927" y="-192.8" font-family="Times,serif" font-size="14.00" fill="#000000">samples = 114</text>
<text text-anchor="middle" x="1130.4927" y="-178.8" font-family="Times,serif" font-size="14.00" fill="#000000">distribution = [81, 33]</text>
</g>
<!-- 2974850473&#45;&gt;1125776940 -->
<g id="edge2" class="edge">
<title>2974850473&#45;&gt;1125776940</title>
<path fill="none" stroke="#000000" d="M1049.122,-271.8089C1060.2557,-262.5308 1072.5187,-252.3116 1084.0727,-242.6833"/>
<polygon fill="#000000" stroke="#000000" points="1086.4942,-245.2214 1091.9358,-236.1308 1082.0129,-239.8439 1086.4942,-245.2214"/>
<text text-anchor="middle" x="1055.542" y="-256.9457" font-family="Times,serif" font-size="14.00" fill="#000000">False</text>
</g>
<!-- 2417634809 -->
<g id="node4" class="node">
<title>2417634809</title>
<polygon fill="none" stroke="#000000" points="502.6676,-136 320.3178,-136 320.3178,-72 502.6676,-72 502.6676,-136"/>
<text text-anchor="middle" x="411.4927" y="-120.8" font-family="Times,serif" font-size="14.00" fill="#000000">X[0] &lt; 0.0412</text>
<text text-anchor="middle" x="411.4927" y="-106.8" font-family="Times,serif" font-size="14.00" fill="#000000">gini = 0.06541778174249183</text>
<text text-anchor="middle" x="411.4927" y="-92.8" font-family="Times,serif" font-size="14.00" fill="#000000">samples = 59</text>
<text text-anchor="middle" x="411.4927" y="-78.8" font-family="Times,serif" font-size="14.00" fill="#000000">distribution = [57, 2]</text>
</g>
<!-- 7062461470&#45;&gt;2417634809 -->
<g id="edge3" class="edge">
<title>7062461470&#45;&gt;2417634809</title>
<path fill="none" stroke="#000000" d="M683.8871,-179.6651C632.1611,-165.2968 566.4689,-147.049 512.5573,-132.0735"/>
<polygon fill="#000000" stroke="#000000" points="513.2059,-128.6212 502.6339,-129.317 511.3323,-135.3658 513.2059,-128.6212"/>
<text text-anchor="middle" x="580.1655" y="-157.2567" font-family="Times,serif" font-size="14.00" fill="#000000">True</text>
</g>
<!-- 1762320756 -->
<g id="node5" class="node">
<title>1762320756</title>
<polygon fill="none" stroke="#000000" points="859.1676,-136 683.8178,-136 683.8178,-72 859.1676,-72 859.1676,-136"/>
<text text-anchor="middle" x="771.4927" y="-120.8" font-family="Times,serif" font-size="14.00" fill="#000000">X[44] &lt; 0.1675</text>
<text text-anchor="middle" x="771.4927" y="-106.8" font-family="Times,serif" font-size="14.00" fill="#000000">gini = 0.1904761904761905</text>
<text text-anchor="middle" x="771.4927" y="-92.8" font-family="Times,serif" font-size="14.00" fill="#000000">samples = 15</text>
<text text-anchor="middle" x="771.4927" y="-78.8" font-family="Times,serif" font-size="14.00" fill="#000000">distribution = [7, 8]</text>
</g>
<!-- 7062461470&#45;&gt;1762320756 -->
<g id="edge4" class="edge">
<title>7062461470&#45;&gt;1762320756</title>
<path fill="none" stroke="#000000" d="M771.4927,-171.8089C771.4927,-163.6906 771.4927,-154.8517 771.4927,-146.3186"/>
<polygon fill="#000000" stroke="#000000" points="774.9928,-146.1307 771.4927,-136.1308 767.9928,-146.1308 774.9928,-146.1307"/>
<text text-anchor="middle" x="756.7168" y="-156.7724" font-family="Times,serif" font-size="14.00" fill="#000000">False</text>
</g>
<!-- 9402639856 -->
<g id="node6" class="node">
<title>9402639856</title>
<polygon fill="none" stroke="#000000" points="1221.6676,-136 1039.3178,-136 1039.3178,-72 1221.6676,-72 1221.6676,-136"/>
<text text-anchor="middle" x="1130.4927" y="-120.8" font-family="Times,serif" font-size="14.00" fill="#000000">X[35] &lt; 0.5564</text>
<text text-anchor="middle" x="1130.4927" y="-106.8" font-family="Times,serif" font-size="14.00" fill="#000000">gini = 0.35099715099715095</text>
<text text-anchor="middle" x="1130.4927" y="-92.8" font-family="Times,serif" font-size="14.00" fill="#000000">samples = 81</text>
<text text-anchor="middle" x="1130.4927" y="-78.8" font-family="Times,serif" font-size="14.00" fill="#000000">distribution = [65, 16]</text>
</g>
<!-- 1125776940&#45;&gt;9402639856 -->
<g id="edge5" class="edge">
<title>1125776940&#45;&gt;9402639856</title>
<path fill="none" stroke="#000000" d="M1130.4927,-171.8089C1130.4927,-163.6906 1130.4927,-154.8517 1130.4927,-146.3186"/>
<polygon fill="#000000" stroke="#000000" points="1133.9928,-146.1307 1130.4927,-136.1308 1126.9928,-146.1308 1133.9928,-146.1307"/>
<text text-anchor="middle" x="1117.5215" y="-156.7724" font-family="Times,serif" font-size="14.00" fill="#000000">True</text>
</g>
<!-- 5638708853 -->
<g id="node7" class="node">
<title>5638708853</title>
<polygon fill="none" stroke="#000000" points="1357.478,-122 1239.5073,-122 1239.5073,-86 1357.478,-86 1357.478,-122"/>
<text text-anchor="middle" x="1298.4927" y="-106.8" font-family="Times,serif" font-size="14.00" fill="#000000">samples = 33</text>
<text text-anchor="middle" x="1298.4927" y="-92.8" font-family="Times,serif" font-size="14.00" fill="#000000">values = [0.0, 1.0]</text>
</g>
<!-- 1125776940&#45;&gt;5638708853 -->
<g id="edge6" class="edge">
<title>1125776940&#45;&gt;5638708853</title>
<path fill="none" stroke="#000000" d="M1184.5737,-171.8089C1208.8538,-157.3565 1236.9701,-140.6206 1259.1951,-127.3914"/>
<polygon fill="#000000" stroke="#000000" points="1261.2177,-130.2606 1268.0205,-122.1382 1257.6373,-124.2456 1261.2177,-130.2606"/>
<text text-anchor="middle" x="1211.4833" y="-149.7961" font-family="Times,serif" font-size="14.00" fill="#000000">False</text>
</g>
<!-- 5869682784 -->
<g id="node8" class="node">
<title>5869682784</title>
<polygon fill="none" stroke="#000000" points="334.978,-36 .0073,-36 .0073,0 334.978,0 334.978,-36"/>
<text text-anchor="middle" x="167.4927" y="-20.8" font-family="Times,serif" font-size="14.00" fill="#000000">samples = 57</text>
<text text-anchor="middle" x="167.4927" y="-6.8" font-family="Times,serif" font-size="14.00" fill="#000000">values = [0.9649122807017544, 0.03508771929824561]</text>
</g>
<!-- 2417634809&#45;&gt;5869682784 -->
<g id="edge7" class="edge">
<title>2417634809&#45;&gt;5869682784</title>
<path fill="none" stroke="#000000" d="M320.6361,-71.9768C289.8505,-61.1261 256.2294,-49.2761 228.3522,-39.4505"/>
<polygon fill="#000000" stroke="#000000" points="229.3401,-36.0877 218.7453,-36.0644 227.0132,-42.6896 229.3401,-36.0877"/>
<text text-anchor="middle" x="256.7509" y="-56.8317" font-family="Times,serif" font-size="14.00" fill="#000000">True</text>
</g>
<!-- 7730958837 -->
<g id="node9" class="node">
<title>7730958837</title>
<polygon fill="none" stroke="#000000" points="470.478,-36 352.5073,-36 352.5073,0 470.478,0 470.478,-36"/>
<text text-anchor="middle" x="411.4927" y="-20.8" font-family="Times,serif" font-size="14.00" fill="#000000">samples = 2</text>
<text text-anchor="middle" x="411.4927" y="-6.8" font-family="Times,serif" font-size="14.00" fill="#000000">values = [0.0, 1.0]</text>
</g>
<!-- 2417634809&#45;&gt;7730958837 -->
<g id="edge8" class="edge">
<title>2417634809&#45;&gt;7730958837</title>
<path fill="none" stroke="#000000" d="M411.4927,-71.9768C411.4927,-63.609 411.4927,-54.647 411.4927,-46.4774"/>
<polygon fill="#000000" stroke="#000000" points="414.9928,-46.3107 411.4927,-36.3108 407.9928,-46.3108 414.9928,-46.3107"/>
<text text-anchor="middle" x="396.7168" y="-56.7267" font-family="Times,serif" font-size="14.00" fill="#000000">False</text>
</g>
<!-- 7752762055 -->
<g id="node10" class="node">
<title>7752762055</title>
<polygon fill="none" stroke="#000000" points="816.478,-36 488.5073,-36 488.5073,0 816.478,0 816.478,-36"/>
<text text-anchor="middle" x="652.4927" y="-20.8" font-family="Times,serif" font-size="14.00" fill="#000000">samples = 7</text>
<text text-anchor="middle" x="652.4927" y="-6.8" font-family="Times,serif" font-size="14.00" fill="#000000">values = [0.7142857142857143, 0.2857142857142857]</text>
</g>
<!-- 1762320756&#45;&gt;7752762055 -->
<g id="edge9" class="edge">
<title>1762320756&#45;&gt;7752762055</title>
<path fill="none" stroke="#000000" d="M727.1815,-71.9768C713.4129,-62.0264 698.4814,-51.2356 685.6137,-41.9362"/>
<polygon fill="#000000" stroke="#000000" points="687.6439,-39.0851 677.4888,-36.0644 683.5437,-44.7586 687.6439,-39.0851"/>
<text text-anchor="middle" x="689.4591" y="-56.8893" font-family="Times,serif" font-size="14.00" fill="#000000">True</text>
</g>
<!-- 4617040030 -->
<g id="node11" class="node">
<title>4617040030</title>
<polygon fill="none" stroke="#000000" points="952.478,-36 834.5073,-36 834.5073,0 952.478,0 952.478,-36"/>
<text text-anchor="middle" x="893.4927" y="-20.8" font-family="Times,serif" font-size="14.00" fill="#000000">samples = 8</text>
<text text-anchor="middle" x="893.4927" y="-6.8" font-family="Times,serif" font-size="14.00" fill="#000000">values = [0.0, 1.0]</text>
</g>
<!-- 1762320756&#45;&gt;4617040030 -->
<g id="edge10" class="edge">
<title>1762320756&#45;&gt;4617040030</title>
<path fill="none" stroke="#000000" d="M816.921,-71.9768C831.0366,-62.0264 846.3445,-51.2356 859.5366,-41.9362"/>
<polygon fill="#000000" stroke="#000000" points="861.7095,-44.6868 867.8664,-36.0644 857.6764,-38.9654 861.7095,-44.6868"/>
<text text-anchor="middle" x="827.5203" y="-56.8893" font-family="Times,serif" font-size="14.00" fill="#000000">False</text>
</g>
<!-- 8639009637 -->
<g id="node12" class="node">
<title>8639009637</title>
<polygon fill="none" stroke="#000000" points="1290.978,-36 970.0073,-36 970.0073,0 1290.978,0 1290.978,-36"/>
<text text-anchor="middle" x="1130.4927" y="-20.8" font-family="Times,serif" font-size="14.00" fill="#000000">samples = 65</text>
<text text-anchor="middle" x="1130.4927" y="-6.8" font-family="Times,serif" font-size="14.00" fill="#000000">values = [0.3230769230769231, 0.676923076923077]</text>
</g>
<!-- 9402639856&#45;&gt;8639009637 -->
<g id="edge11" class="edge">
<title>9402639856&#45;&gt;8639009637</title>
<path fill="none" stroke="#000000" d="M1130.4927,-71.9768C1130.4927,-63.609 1130.4927,-54.647 1130.4927,-46.4774"/>
<polygon fill="#000000" stroke="#000000" points="1133.9928,-46.3107 1130.4927,-36.3108 1126.9928,-46.3108 1133.9928,-46.3107"/>
<text text-anchor="middle" x="1117.5215" y="-56.7267" font-family="Times,serif" font-size="14.00" fill="#000000">True</text>
</g>
<!-- 1464176224 -->
<g id="node13" class="node">
<title>1464176224</title>
<polygon fill="none" stroke="#000000" points="1426.478,-36 1308.5073,-36 1308.5073,0 1426.478,0 1426.478,-36"/>
<text text-anchor="middle" x="1367.4927" y="-20.8" font-family="Times,serif" font-size="14.00" fill="#000000">samples = 16</text>
<text text-anchor="middle" x="1367.4927" y="-6.8" font-family="Times,serif" font-size="14.00" fill="#000000">values = [1.0, 0.0]</text>
</g>
<!-- 9402639856&#45;&gt;1464176224 -->
<g id="edge12" class="edge">
<title>9402639856&#45;&gt;1464176224</title>
<path fill="none" stroke="#000000" d="M1218.7427,-71.9768C1248.5146,-61.1735 1281.0165,-49.3795 1308.0241,-39.5793"/>
<polygon fill="#000000" stroke="#000000" points="1309.5041,-42.7657 1317.7104,-36.0644 1307.1163,-36.1855 1309.5041,-42.7657"/>
<text text-anchor="middle" x="1253.2052" y="-56.9097" font-family="Times,serif" font-size="14.00" fill="#000000">False</text>
</g>
</g>
</svg>
