<?xml version="1.0" encoding="UTF-8" standalone="no"?>
<!DOCTYPE svg PUBLIC "-//W3C//DTD SVG 1.1//EN"
 "http://www.w3.org/Graphics/SVG/1.1/DTD/svg11.dtd">
<!-- Generated by graphviz version 2.40.1 (20161225.0304)
 -->
<!-- Title: Tree Pages: 1 -->
<svg width="183pt" height="172pt"
 viewBox="0.00 0.00 183.17 172.00" xmlns="http://www.w3.org/2000/svg" xmlns:xlink="http://www.w3.org/1999/xlink">
<g id="graph0" class="graph" transform="scale(1 1) rotate(0) translate(4 168)">
<title>Tree</title>
<polygon fill="#ffffff" stroke="transparent" points="-4,4 -4,-168 179.1748,-168 179.1748,4 -4,4"/>
<!-- 6024831014 -->
<g id="node1" class="node">
<title>6024831014</title>
<polygon fill="none" stroke="#000000" points="175.2623,-164 -.0875,-164 -.0875,-100 175.2623,-100 175.2623,-164"/>
<text text-anchor="middle" x="87.5874" y="-148.8" font-family="Times,serif" font-size="14.00" fill="#000000">X[10] &lt; 0.1734</text>
<text text-anchor="middle" x="87.5874" y="-134.8" font-family="Times,serif" font-size="14.00" fill="#000000">gini = 0.3866231853353914</text>
<text text-anchor="middle" x="87.5874" y="-120.8" font-family="Times,serif" font-size="14.00" fill="#000000">samples = 188</text>
<text text-anchor="middle" x="87.5874" y="-106.8" font-family="Times,serif" font-size="14.00" fill="#000000">distribution = [74, 114]</text>
</g>
<!-- 4216920791 -->
<g id="node2" class="node">
<title>4216920791</title>
<polygon fill="none" stroke="#000000" points="175.2623,-64 -.0875,-64 -.0875,0 175.2623,0 175.2623,-64"/>
<text text-anchor="middle" x="87.5874" y="-48.8" font-family="Times,serif" font-size="14.00" fill="#000000">X[44] &lt; 0.2662</text>
<text text-anchor="middle" x="87.5874" y="-34.8" font-family="Times,serif" font-size="14.00" fill="#000000">gini = 0.3526099198613819</text>
<text text-anchor="middle" x="87.5874" y="-20.8" font-family="Times,serif" font-size="14.00" fill="#000000">samples = 114</text>
<text text-anchor="middle" x="87.5874" y="-6.8" font-family="Times,serif" font-size="14.00" fill="#000000">distribution = [81, 33]</text>
</g>
<!-- 6024831014&#45;&gt;4216920791 -->
<g id="edge1" class="edge">
<title>6024831014&#45;&gt;4216920791</title>
<path fill="none" stroke="#000000" d="M87.5874,-99.8089C87.5874,-91.6906 87.5874,-82.8517 87.5874,-74.3186"/>
<polygon fill="#000000" stroke="#000000" points="91.0875,-74.1307 87.5874,-64.1308 84.0875,-74.1308 91.0875,-74.1307"/>
<text text-anchor="middle" x="72.8115" y="-84.7724" font-family="Times,serif" font-size="14.00" fill="#000000">False</text>
</g>
</g>
</svg>
