<?xml version="1.0" encoding="UTF-8" standalone="no"?>
<!DOCTYPE svg PUBLIC "-//W3C//DTD SVG 1.1//EN"
 "http://www.w3.org/Graphics/SVG/1.1/DTD/svg11.dtd">
<!-- Generated by graphviz version 2.40.1 (20161225.0304)
 -->
<!-- Title: Tree Pages: 1 -->
<svg width="190pt" height="572pt"
 viewBox="0.00 0.00 190.17 572.00" xmlns="http://www.w3.org/2000/svg" xmlns:xlink="http://www.w3.org/1999/xlink">
<g id="graph0" class="graph" transform="scale(1 1) rotate(0) translate(4 568)">
<title>Tree</title>
<polygon fill="#ffffff" stroke="transparent" points="-4,4 -4,-568 186.1748,-568 186.1748,4 -4,4"/>
<!-- 6024831014 -->
<g id="node1" class="node">
<title>6024831014</title>
<polygon fill="none" stroke="#000000" points="178.7623,-564 3.4125,-564 3.4125,-500 178.7623,-500 178.7623,-564"/>
<text text-anchor="middle" x="91.0874" y="-548.8" font-family="Times,serif" font-size="14.00" fill="#000000">X[10] &lt; 0.1734</text>
<text text-anchor="middle" x="91.0874" y="-534.8" font-family="Times,serif" font-size="14.00" fill="#000000">gini = 0.3866231853353914</text>
<text text-anchor="middle" x="91.0874" y="-520.8" font-family="Times,serif" font-size="14.00" fill="#000000">samples = 188</text>
<text text-anchor="middle" x="91.0874" y="-506.8" font-family="Times,serif" font-size="14.00" fill="#000000">distribution = [74, 114]</text>
</g>
<!-- 4216920791 -->
<g id="node2" class="node">
<title>4216920791</title>
<polygon fill="none" stroke="#000000" points="178.7623,-464 3.4125,-464 3.4125,-400 178.7623,-400 178.7623,-464"/>
<text text-anchor="middle" x="91.0874" y="-448.8" font-family="Times,serif" font-size="14.00" fill="#000000">X[44] &lt; 0.2662</text>
<text text-anchor="middle" x="91.0874" y="-434.8" font-family="Times,serif" font-size="14.00" fill="#000000">gini = 0.3526099198613819</text>
<text text-anchor="middle" x="91.0874" y="-420.8" font-family="Times,serif" font-size="14.00" fill="#000000">samples = 114</text>
<text text-anchor="middle" x="91.0874" y="-406.8" font-family="Times,serif" font-size="14.00" fill="#000000">distribution = [81, 33]</text>
</g>
<!-- 6024831014&#45;&gt;4216920791 -->
<g id="edge1" class="edge">
<title>6024831014&#45;&gt;4216920791</title>
<path fill="none" stroke="#000000" d="M91.0874,-499.8089C91.0874,-491.6906 91.0874,-482.8517 91.0874,-474.3186"/>
<polygon fill="#000000" stroke="#000000" points="94.5875,-474.1307 91.0874,-464.1308 87.5875,-474.1308 94.5875,-474.1307"/>
<text text-anchor="middle" x="76.3115" y="-484.7724" font-family="Times,serif" font-size="14.00" fill="#000000">False</text>
</g>
<!-- 5345824640 -->
<g id="node3" class="node">
<title>5345824640</title>
<polygon fill="none" stroke="#000000" points="182.2623,-364 -.0875,-364 -.0875,-300 182.2623,-300 182.2623,-364"/>
<text text-anchor="middle" x="91.0874" y="-348.8" font-family="Times,serif" font-size="14.00" fill="#000000">X[35] &lt; 0.5564</text>
<text text-anchor="middle" x="91.0874" y="-334.8" font-family="Times,serif" font-size="14.00" fill="#000000">gini = 0.35099715099715095</text>
<text text-anchor="middle" x="91.0874" y="-320.8" font-family="Times,serif" font-size="14.00" fill="#000000">samples = 81</text>
<text text-anchor="middle" x="91.0874" y="-306.8" font-family="Times,serif" font-size="14.00" fill="#000000">distribution = [65, 16]</text>
</g>
<!-- 4216920791&#45;&gt;5345824640 -->
<g id="edge2" class="edge">
<title>4216920791&#45;&gt;5345824640</title>
<path fill="none" stroke="#000000" d="M91.0874,-399.8089C91.0874,-391.6906 91.0874,-382.8517 91.0874,-374.3186"/>
<polygon fill="#000000" stroke="#000000" points="94.5875,-374.1307 91.0874,-364.1308 87.5875,-374.1308 94.5875,-374.1307"/>
<text text-anchor="middle" x="78.1162" y="-384.7724" font-family="Times,serif" font-size="14.00" fill="#000000">True</text>
</g>
<!-- 6901030300 -->
<g id="node4" class="node">
<title>6901030300</title>
<polygon fill="none" stroke="#000000" points="178.7623,-264 3.4125,-264 3.4125,-200 178.7623,-200 178.7623,-264"/>
<text text-anchor="middle" x="91.0874" y="-248.8" font-family="Times,serif" font-size="14.00" fill="#000000">X[50] &lt; 0.0125</text>
<text text-anchor="middle" x="91.0874" y="-234.8" font-family="Times,serif" font-size="14.00" fill="#000000">gini = 0.3152658152658153</text>
<text text-anchor="middle" x="91.0874" y="-220.8" font-family="Times,serif" font-size="14.00" fill="#000000">samples = 65</text>
<text text-anchor="middle" x="91.0874" y="-206.8" font-family="Times,serif" font-size="14.00" fill="#000000">distribution = [27, 38]</text>
</g>
<!-- 5345824640&#45;&gt;6901030300 -->
<g id="edge3" class="edge">
<title>5345824640&#45;&gt;6901030300</title>
<path fill="none" stroke="#000000" d="M91.0874,-299.8089C91.0874,-291.6906 91.0874,-282.8517 91.0874,-274.3186"/>
<polygon fill="#000000" stroke="#000000" points="94.5875,-274.1307 91.0874,-264.1308 87.5875,-274.1308 94.5875,-274.1307"/>
<text text-anchor="middle" x="78.1162" y="-284.7724" font-family="Times,serif" font-size="14.00" fill="#000000">True</text>
</g>
<!-- 2025222459 -->
<g id="node5" class="node">
<title>2025222459</title>
<polygon fill="none" stroke="#000000" points="178.7623,-164 3.4125,-164 3.4125,-100 178.7623,-100 178.7623,-164"/>
<text text-anchor="middle" x="91.0874" y="-148.8" font-family="Times,serif" font-size="14.00" fill="#000000">X[41] &lt; 0.0866</text>
<text text-anchor="middle" x="91.0874" y="-134.8" font-family="Times,serif" font-size="14.00" fill="#000000">gini = 0.1385448916408668</text>
<text text-anchor="middle" x="91.0874" y="-120.8" font-family="Times,serif" font-size="14.00" fill="#000000">samples = 38</text>
<text text-anchor="middle" x="91.0874" y="-106.8" font-family="Times,serif" font-size="14.00" fill="#000000">distribution = [4, 34]</text>
</g>
<!-- 6901030300&#45;&gt;2025222459 -->
<g id="edge4" class="edge">
<title>6901030300&#45;&gt;2025222459</title>
<path fill="none" stroke="#000000" d="M91.0874,-199.8089C91.0874,-191.6906 91.0874,-182.8517 91.0874,-174.3186"/>
<polygon fill="#000000" stroke="#000000" points="94.5875,-174.1307 91.0874,-164.1308 87.5875,-174.1308 94.5875,-174.1307"/>
<text text-anchor="middle" x="76.3115" y="-184.7724" font-family="Times,serif" font-size="14.00" fill="#000000">False</text>
</g>
<!-- 9624936210 -->
<g id="node6" class="node">
<title>9624936210</title>
<polygon fill="none" stroke="#000000" points="157.3659,-64 24.8089,-64 24.8089,0 157.3659,0 157.3659,-64"/>
<text text-anchor="middle" x="91.0874" y="-48.8" font-family="Times,serif" font-size="14.00" fill="#000000">X[18] &lt; 0.2745</text>
<text text-anchor="middle" x="91.0874" y="-34.8" font-family="Times,serif" font-size="14.00" fill="#000000">gini = 0.0</text>
<text text-anchor="middle" x="91.0874" y="-20.8" font-family="Times,serif" font-size="14.00" fill="#000000">samples = 34</text>
<text text-anchor="middle" x="91.0874" y="-6.8" font-family="Times,serif" font-size="14.00" fill="#000000">distribution = [2, 32]</text>
</g>
<!-- 2025222459&#45;&gt;9624936210 -->
<g id="edge5" class="edge">
<title>2025222459&#45;&gt;9624936210</title>
<path fill="none" stroke="#000000" d="M91.0874,-99.8089C91.0874,-91.6906 91.0874,-82.8517 91.0874,-74.3186"/>
<polygon fill="#000000" stroke="#000000" points="94.5875,-74.1307 91.0874,-64.1308 87.5875,-74.1308 94.5875,-74.1307"/>
<text text-anchor="middle" x="76.3115" y="-84.7724" font-family="Times,serif" font-size="14.00" fill="#000000">False</text>
</g>
</g>
</svg>
