<?xml version="1.0" encoding="UTF-8" standalone="no"?>
<!DOCTYPE svg PUBLIC "-//W3C//DTD SVG 1.1//EN"
 "http://www.w3.org/Graphics/SVG/1.1/DTD/svg11.dtd">
<!-- Generated by graphviz version 2.40.1 (20161225.0304)
 -->
<!-- Title: Tree Pages: 1 -->
<svg width="1233pt" height="644pt"
 viewBox="0.00 0.00 1232.88 644.00" xmlns="http://www.w3.org/2000/svg" xmlns:xlink="http://www.w3.org/1999/xlink">
<g id="graph0" class="graph" transform="scale(1 1) rotate(0) translate(4 640)">
<title>Tree</title>
<polygon fill="#ffffff" stroke="transparent" points="-4,4 -4,-640 1228.875,-640 1228.875,4 -4,4"/>
<!-- 6881699248 -->
<g id="node1" class="node">
<title>6881699248</title>
<polygon fill="none" stroke="#000000" points="660.6124,-636 485.2626,-636 485.2626,-572 660.6124,-572 660.6124,-636"/>
<text text-anchor="middle" x="572.9375" y="-620.8" font-family="Times,serif" font-size="14.00" fill="#000000">X[10] &lt; 0.1734</text>
<text text-anchor="middle" x="572.9375" y="-606.8" font-family="Times,serif" font-size="14.00" fill="#000000">gini = 0.3866231853353914</text>
<text text-anchor="middle" x="572.9375" y="-592.8" font-family="Times,serif" font-size="14.00" fill="#000000">samples = 188</text>
<text text-anchor="middle" x="572.9375" y="-578.8" font-family="Times,serif" font-size="14.00" fill="#000000">distribution = [74, 114]</text>
</g>
<!-- 8770638208 -->
<g id="node2" class="node">
<title>8770638208</title>
<polygon fill="none" stroke="#000000" points="562.6124,-536 387.2626,-536 387.2626,-472 562.6124,-472 562.6124,-536"/>
<text text-anchor="middle" x="474.9375" y="-520.8" font-family="Times,serif" font-size="14.00" fill="#000000">X[3] &lt; 0.0525</text>
<text text-anchor="middle" x="474.9375" y="-506.8" font-family="Times,serif" font-size="14.00" fill="#000000">gini = 0.1908688349366316</text>
<text text-anchor="middle" x="474.9375" y="-492.8" font-family="Times,serif" font-size="14.00" fill="#000000">samples = 74</text>
<text text-anchor="middle" x="474.9375" y="-478.8" font-family="Times,serif" font-size="14.00" fill="#000000">distribution = [59, 15]</text>
</g>
<!-- 6881699248&#45;&gt;8770638208 -->
<g id="edge1" class="edge">
<title>6881699248&#45;&gt;8770638208</title>
<path fill="none" stroke="#000000" d="M541.3902,-571.8089C532.56,-562.7985 522.8599,-552.9004 513.6651,-543.518"/>
<polygon fill="#000000" stroke="#000000" points="515.9247,-540.8232 506.4256,-536.1308 510.9252,-545.7227 515.9247,-540.8232"/>
<text text-anchor="middle" x="510.739" y="-556.568" font-family="Times,serif" font-size="14.00" fill="#000000">True</text>
</g>
<!-- 4700123707 -->
<g id="node3" class="node">
<title>4700123707</title>
<polygon fill="none" stroke="#000000" points="778.6124,-536 603.2626,-536 603.2626,-472 778.6124,-472 778.6124,-536"/>
<text text-anchor="middle" x="690.9375" y="-520.8" font-family="Times,serif" font-size="14.00" fill="#000000">X[44] &lt; 0.2662</text>
<text text-anchor="middle" x="690.9375" y="-506.8" font-family="Times,serif" font-size="14.00" fill="#000000">gini = 0.3526099198613819</text>
<text text-anchor="middle" x="690.9375" y="-492.8" font-family="Times,serif" font-size="14.00" fill="#000000">samples = 114</text>
<text text-anchor="middle" x="690.9375" y="-478.8" font-family="Times,serif" font-size="14.00" fill="#000000">distribution = [81, 33]</text>
</g>
<!-- 6881699248&#45;&gt;4700123707 -->
<g id="edge2" class="edge">
<title>6881699248&#45;&gt;4700123707</title>
<path fill="none" stroke="#000000" d="M610.923,-571.8089C621.8711,-562.5308 633.9298,-552.3116 645.2912,-542.6833"/>
<polygon fill="#000000" stroke="#000000" points="647.6571,-545.2662 653.0232,-536.1308 643.1314,-539.9259 647.6571,-545.2662"/>
<text text-anchor="middle" x="616.9898" y="-556.9457" font-family="Times,serif" font-size="14.00" fill="#000000">False</text>
</g>
<!-- 4654647968 -->
<g id="node4" class="node">
<title>4654647968</title>
<polygon fill="none" stroke="#000000" points="349.1124,-436 166.7626,-436 166.7626,-372 349.1124,-372 349.1124,-436"/>
<text text-anchor="middle" x="257.9375" y="-420.8" font-family="Times,serif" font-size="14.00" fill="#000000">X[0] &lt; 0.0412</text>
<text text-anchor="middle" x="257.9375" y="-406.8" font-family="Times,serif" font-size="14.00" fill="#000000">gini = 0.06541778174249183</text>
<text text-anchor="middle" x="257.9375" y="-392.8" font-family="Times,serif" font-size="14.00" fill="#000000">samples = 59</text>
<text text-anchor="middle" x="257.9375" y="-378.8" font-family="Times,serif" font-size="14.00" fill="#000000">distribution = [57, 2]</text>
</g>
<!-- 8770638208&#45;&gt;4654647968 -->
<g id="edge3" class="edge">
<title>8770638208&#45;&gt;4654647968</title>
<path fill="none" stroke="#000000" d="M405.3819,-471.9467C383.4817,-461.8545 359.1408,-450.6375 336.6507,-440.2734"/>
<polygon fill="#000000" stroke="#000000" points="338.0184,-437.0499 327.4715,-436.0433 335.0886,-443.4073 338.0184,-437.0499"/>
<text text-anchor="middle" x="353.3554" y="-456.7489" font-family="Times,serif" font-size="14.00" fill="#000000">True</text>
</g>
<!-- 6553537657 -->
<g id="node5" class="node">
<title>6553537657</title>
<polygon fill="none" stroke="#000000" points="562.6124,-436 387.2626,-436 387.2626,-372 562.6124,-372 562.6124,-436"/>
<text text-anchor="middle" x="474.9375" y="-420.8" font-family="Times,serif" font-size="14.00" fill="#000000">X[44] &lt; 0.1675</text>
<text text-anchor="middle" x="474.9375" y="-406.8" font-family="Times,serif" font-size="14.00" fill="#000000">gini = 0.1904761904761905</text>
<text text-anchor="middle" x="474.9375" y="-392.8" font-family="Times,serif" font-size="14.00" fill="#000000">samples = 15</text>
<text text-anchor="middle" x="474.9375" y="-378.8" font-family="Times,serif" font-size="14.00" fill="#000000">distribution = [7, 8]</text>
</g>
<!-- 8770638208&#45;&gt;6553537657 -->
<g id="edge4" class="edge">
<title>8770638208&#45;&gt;6553537657</title>
<path fill="none" stroke="#000000" d="M474.9375,-471.8089C474.9375,-463.6906 474.9375,-454.8517 474.9375,-446.3186"/>
<polygon fill="#000000" stroke="#000000" points="478.4376,-446.1307 474.9375,-436.1308 471.4376,-446.1308 478.4376,-446.1307"/>
<text text-anchor="middle" x="460.1616" y="-456.7724" font-family="Times,serif" font-size="14.00" fill="#000000">False</text>
</g>
<!-- 3464114809 -->
<g id="node6" class="node">
<title>3464114809</title>
<polygon fill="none" stroke="#000000" points="782.1124,-436 599.7626,-436 599.7626,-372 782.1124,-372 782.1124,-436"/>
<text text-anchor="middle" x="690.9375" y="-420.8" font-family="Times,serif" font-size="14.00" fill="#000000">X[35] &lt; 0.5564</text>
<text text-anchor="middle" x="690.9375" y="-406.8" font-family="Times,serif" font-size="14.00" fill="#000000">gini = 0.35099715099715095</text>
<text text-anchor="middle" x="690.9375" y="-392.8" font-family="Times,serif" font-size="14.00" fill="#000000">samples = 81</text>
<text text-anchor="middle" x="690.9375" y="-378.8" font-family="Times,serif" font-size="14.00" fill="#000000">distribution = [65, 16]</text>
</g>
<!-- 4700123707&#45;&gt;3464114809 -->
<g id="edge5" class="edge">
<title>4700123707&#45;&gt;3464114809</title>
<path fill="none" stroke="#000000" d="M690.9375,-471.8089C690.9375,-463.6906 690.9375,-454.8517 690.9375,-446.3186"/>
<polygon fill="#000000" stroke="#000000" points="694.4376,-446.1307 690.9375,-436.1308 687.4376,-446.1308 694.4376,-446.1307"/>
<text text-anchor="middle" x="677.9663" y="-456.7724" font-family="Times,serif" font-size="14.00" fill="#000000">True</text>
</g>
<!-- 3210245292 -->
<g id="node7" class="node">
<title>3210245292</title>
<polygon fill="none" stroke="#000000" points="907.8126,-422 800.0624,-422 800.0624,-386 907.8126,-386 907.8126,-422"/>
<text text-anchor="middle" x="853.9375" y="-406.8" font-family="Times,serif" font-size="14.00" fill="#000000">samples = 33</text>
<text text-anchor="middle" x="853.9375" y="-392.8" font-family="Times,serif" font-size="14.00" fill="#000000">ratio = [0.0, 1.0]</text>
</g>
<!-- 4700123707&#45;&gt;3210245292 -->
<g id="edge6" class="edge">
<title>4700123707&#45;&gt;3210245292</title>
<path fill="none" stroke="#000000" d="M743.409,-471.8089C766.9664,-457.3565 794.246,-440.6206 815.8095,-427.3914"/>
<polygon fill="#000000" stroke="#000000" points="817.6787,-430.3509 824.3722,-422.1382 814.0181,-424.3843 817.6787,-430.3509"/>
<text text-anchor="middle" x="769.0779" y="-449.7961" font-family="Times,serif" font-size="14.00" fill="#000000">False</text>
</g>
<!-- 5811362099 -->
<g id="node8" class="node">
<title>5811362099</title>
<polygon fill="none" stroke="#000000" points="185.5999,-336 4.2751,-336 4.2751,-272 185.5999,-272 185.5999,-336"/>
<text text-anchor="middle" x="94.9375" y="-320.8" font-family="Times,serif" font-size="14.00" fill="#000000">X[2] &lt; 0.0024</text>
<text text-anchor="middle" x="94.9375" y="-306.8" font-family="Times,serif" font-size="14.00" fill="#000000">gini = 0.03446115288220553</text>
<text text-anchor="middle" x="94.9375" y="-292.8" font-family="Times,serif" font-size="14.00" fill="#000000">samples = 57</text>
<text text-anchor="middle" x="94.9375" y="-278.8" font-family="Times,serif" font-size="14.00" fill="#000000">distribution = [1, 56]</text>
</g>
<!-- 4654647968&#45;&gt;5811362099 -->
<g id="edge7" class="edge">
<title>4654647968&#45;&gt;5811362099</title>
<path fill="none" stroke="#000000" d="M205.466,-371.8089C189.7611,-362.174 172.4018,-351.5241 156.1848,-341.575"/>
<polygon fill="#000000" stroke="#000000" points="157.6647,-338.3768 147.3106,-336.1308 154.0041,-344.3434 157.6647,-338.3768"/>
<text text-anchor="middle" x="163.3561" y="-356.7324" font-family="Times,serif" font-size="14.00" fill="#000000">True</text>
</g>
<!-- 3798319862 -->
<g id="node9" class="node">
<title>3798319862</title>
<polygon fill="none" stroke="#000000" points="311.8126,-322 204.0624,-322 204.0624,-286 311.8126,-286 311.8126,-322"/>
<text text-anchor="middle" x="257.9375" y="-306.8" font-family="Times,serif" font-size="14.00" fill="#000000">samples = 2</text>
<text text-anchor="middle" x="257.9375" y="-292.8" font-family="Times,serif" font-size="14.00" fill="#000000">ratio = [0.0, 1.0]</text>
</g>
<!-- 4654647968&#45;&gt;3798319862 -->
<g id="edge8" class="edge">
<title>4654647968&#45;&gt;3798319862</title>
<path fill="none" stroke="#000000" d="M257.9375,-371.8089C257.9375,-359.0908 257.9375,-344.6043 257.9375,-332.2954"/>
<polygon fill="#000000" stroke="#000000" points="261.4376,-332.1382 257.9375,-322.1382 254.4376,-332.1383 261.4376,-332.1382"/>
<text text-anchor="middle" x="243.1616" y="-349.9674" font-family="Times,serif" font-size="14.00" fill="#000000">False</text>
</g>
<!-- 4619136900 -->
<g id="node10" class="node">
<title>4619136900</title>
<polygon fill="none" stroke="#000000" points="455.716,-336 330.159,-336 330.159,-272 455.716,-272 455.716,-336"/>
<text text-anchor="middle" x="392.9375" y="-320.8" font-family="Times,serif" font-size="14.00" fill="#000000">X[8] &lt; 0.0889</text>
<text text-anchor="middle" x="392.9375" y="-306.8" font-family="Times,serif" font-size="14.00" fill="#000000">gini = 0.0</text>
<text text-anchor="middle" x="392.9375" y="-292.8" font-family="Times,serif" font-size="14.00" fill="#000000">samples = 7</text>
<text text-anchor="middle" x="392.9375" y="-278.8" font-family="Times,serif" font-size="14.00" fill="#000000">distribution = [2, 5]</text>
</g>
<!-- 6553537657&#45;&gt;4619136900 -->
<g id="edge9" class="edge">
<title>6553537657&#45;&gt;4619136900</title>
<path fill="none" stroke="#000000" d="M448.5408,-371.8089C441.2985,-362.9769 433.357,-353.2921 425.7998,-344.0759"/>
<polygon fill="#000000" stroke="#000000" points="428.332,-341.6442 419.2847,-336.1308 422.9191,-346.0828 428.332,-341.6442"/>
<text text-anchor="middle" x="421.0748" y="-356.9323" font-family="Times,serif" font-size="14.00" fill="#000000">True</text>
</g>
<!-- 9259891255 -->
<g id="node11" class="node">
<title>9259891255</title>
<polygon fill="none" stroke="#000000" points="581.8126,-322 474.0624,-322 474.0624,-286 581.8126,-286 581.8126,-322"/>
<text text-anchor="middle" x="527.9375" y="-306.8" font-family="Times,serif" font-size="14.00" fill="#000000">samples = 8</text>
<text text-anchor="middle" x="527.9375" y="-292.8" font-family="Times,serif" font-size="14.00" fill="#000000">ratio = [0.0, 1.0]</text>
</g>
<!-- 6553537657&#45;&gt;9259891255 -->
<g id="edge10" class="edge">
<title>6553537657&#45;&gt;9259891255</title>
<path fill="none" stroke="#000000" d="M491.9988,-371.8089C498.9436,-358.7054 506.8834,-343.7247 513.5308,-331.1825"/>
<polygon fill="#000000" stroke="#000000" points="516.7338,-332.613 518.3242,-322.1382 510.5487,-329.3349 516.7338,-332.613"/>
<text text-anchor="middle" x="490.5097" y="-349.5394" font-family="Times,serif" font-size="14.00" fill="#000000">False</text>
</g>
<!-- 8875672165 -->
<g id="node12" class="node">
<title>8875672165</title>
<polygon fill="none" stroke="#000000" points="782.1124,-336 599.7626,-336 599.7626,-272 782.1124,-272 782.1124,-336"/>
<text text-anchor="middle" x="690.9375" y="-320.8" font-family="Times,serif" font-size="14.00" fill="#000000">X[22] &lt; 0.7852</text>
<text text-anchor="middle" x="690.9375" y="-306.8" font-family="Times,serif" font-size="14.00" fill="#000000">gini = 0.32468864468864467</text>
<text text-anchor="middle" x="690.9375" y="-292.8" font-family="Times,serif" font-size="14.00" fill="#000000">samples = 65</text>
<text text-anchor="middle" x="690.9375" y="-278.8" font-family="Times,serif" font-size="14.00" fill="#000000">distribution = [35, 30]</text>
</g>
<!-- 3464114809&#45;&gt;8875672165 -->
<g id="edge11" class="edge">
<title>3464114809&#45;&gt;8875672165</title>
<path fill="none" stroke="#000000" d="M690.9375,-371.8089C690.9375,-363.6906 690.9375,-354.8517 690.9375,-346.3186"/>
<polygon fill="#000000" stroke="#000000" points="694.4376,-346.1307 690.9375,-336.1308 687.4376,-346.1308 694.4376,-346.1307"/>
<text text-anchor="middle" x="677.9663" y="-356.7724" font-family="Times,serif" font-size="14.00" fill="#000000">True</text>
</g>
<!-- 4765689049 -->
<g id="node13" class="node">
<title>4765689049</title>
<polygon fill="none" stroke="#000000" points="907.8126,-322 800.0624,-322 800.0624,-286 907.8126,-286 907.8126,-322"/>
<text text-anchor="middle" x="853.9375" y="-306.8" font-family="Times,serif" font-size="14.00" fill="#000000">samples = 16</text>
<text text-anchor="middle" x="853.9375" y="-292.8" font-family="Times,serif" font-size="14.00" fill="#000000">ratio = [1.0, 0.0]</text>
</g>
<!-- 3464114809&#45;&gt;4765689049 -->
<g id="edge12" class="edge">
<title>3464114809&#45;&gt;4765689049</title>
<path fill="none" stroke="#000000" d="M743.409,-371.8089C766.9664,-357.3565 794.246,-340.6206 815.8095,-327.3914"/>
<polygon fill="#000000" stroke="#000000" points="817.6787,-330.3509 824.3722,-322.1382 814.0181,-324.3843 817.6787,-330.3509"/>
<text text-anchor="middle" x="769.0779" y="-349.7961" font-family="Times,serif" font-size="14.00" fill="#000000">False</text>
</g>
<!-- 3591412296 -->
<g id="node14" class="node">
<title>3591412296</title>
<polygon fill="none" stroke="#000000" points="107.8126,-222 .0624,-222 .0624,-186 107.8126,-186 107.8126,-222"/>
<text text-anchor="middle" x="53.9375" y="-206.8" font-family="Times,serif" font-size="14.00" fill="#000000">samples = 1</text>
<text text-anchor="middle" x="53.9375" y="-192.8" font-family="Times,serif" font-size="14.00" fill="#000000">ratio = [0.0, 1.0]</text>
</g>
<!-- 5811362099&#45;&gt;3591412296 -->
<g id="edge13" class="edge">
<title>5811362099&#45;&gt;3591412296</title>
<path fill="none" stroke="#000000" d="M81.7392,-271.8089C76.4194,-258.8338 70.345,-244.0183 65.2339,-231.5521"/>
<polygon fill="#000000" stroke="#000000" points="68.4062,-230.063 61.3742,-222.1382 61.9294,-232.7185 68.4062,-230.063"/>
<text text-anchor="middle" x="58.5908" y="-249.7866" font-family="Times,serif" font-size="14.00" fill="#000000">True</text>
</g>
<!-- 3217516306 -->
<g id="node15" class="node">
<title>3217516306</title>
<polygon fill="none" stroke="#000000" points="258.216,-236 125.659,-236 125.659,-172 258.216,-172 258.216,-236"/>
<text text-anchor="middle" x="191.9375" y="-220.8" font-family="Times,serif" font-size="14.00" fill="#000000">X[27] &lt; 1.0</text>
<text text-anchor="middle" x="191.9375" y="-206.8" font-family="Times,serif" font-size="14.00" fill="#000000">gini = 0.0</text>
<text text-anchor="middle" x="191.9375" y="-192.8" font-family="Times,serif" font-size="14.00" fill="#000000">samples = 56</text>
<text text-anchor="middle" x="191.9375" y="-178.8" font-family="Times,serif" font-size="14.00" fill="#000000">distribution = [55, 1]</text>
</g>
<!-- 5811362099&#45;&gt;3217516306 -->
<g id="edge14" class="edge">
<title>5811362099&#45;&gt;3217516306</title>
<path fill="none" stroke="#000000" d="M126.1628,-271.8089C134.903,-262.7985 144.5041,-252.9004 153.6051,-243.518"/>
<polygon fill="#000000" stroke="#000000" points="156.3203,-245.7456 160.7707,-236.1308 151.2958,-240.8718 156.3203,-245.7456"/>
<text text-anchor="middle" x="128.8866" y="-256.568" font-family="Times,serif" font-size="14.00" fill="#000000">False</text>
</g>
<!-- 1531040438 -->
<g id="node16" class="node">
<title>1531040438</title>
<polygon fill="none" stroke="#000000" points="444.8126,-222 337.0624,-222 337.0624,-186 444.8126,-186 444.8126,-222"/>
<text text-anchor="middle" x="390.9375" y="-206.8" font-family="Times,serif" font-size="14.00" fill="#000000">samples = 2</text>
<text text-anchor="middle" x="390.9375" y="-192.8" font-family="Times,serif" font-size="14.00" fill="#000000">ratio = [0.0, 1.0]</text>
</g>
<!-- 4619136900&#45;&gt;1531040438 -->
<g id="edge15" class="edge">
<title>4619136900&#45;&gt;1531040438</title>
<path fill="none" stroke="#000000" d="M392.2937,-271.8089C392.0393,-259.0908 391.7496,-244.6043 391.5034,-232.2954"/>
<polygon fill="#000000" stroke="#000000" points="394.9996,-232.0662 391.3003,-222.1382 388.001,-232.2062 394.9996,-232.0662"/>
<text text-anchor="middle" x="378.8297" y="-249.9674" font-family="Times,serif" font-size="14.00" fill="#000000">True</text>
</g>
<!-- 3333172916 -->
<g id="node17" class="node">
<title>3333172916</title>
<polygon fill="none" stroke="#000000" points="570.8126,-222 463.0624,-222 463.0624,-186 570.8126,-186 570.8126,-222"/>
<text text-anchor="middle" x="516.9375" y="-206.8" font-family="Times,serif" font-size="14.00" fill="#000000">samples = 5</text>
<text text-anchor="middle" x="516.9375" y="-192.8" font-family="Times,serif" font-size="14.00" fill="#000000">ratio = [1.0, 0.0]</text>
</g>
<!-- 4619136900&#45;&gt;3333172916 -->
<g id="edge16" class="edge">
<title>4619136900&#45;&gt;3333172916</title>
<path fill="none" stroke="#000000" d="M432.8544,-271.8089C450.2179,-257.8061 470.2395,-241.6597 486.3887,-228.6362"/>
<polygon fill="#000000" stroke="#000000" points="488.8591,-231.1402 494.4461,-222.1382 484.4648,-225.6913 488.8591,-231.1402"/>
<text text-anchor="middle" x="449.1687" y="-249.5363" font-family="Times,serif" font-size="14.00" fill="#000000">False</text>
</g>
<!-- 9723131072 -->
<g id="node18" class="node">
<title>9723131072</title>
<polygon fill="none" stroke="#000000" points="771.6124,-236 596.2626,-236 596.2626,-172 771.6124,-172 771.6124,-236"/>
<text text-anchor="middle" x="683.9375" y="-220.8" font-family="Times,serif" font-size="14.00" fill="#000000">X[51] &lt; 0.0089</text>
<text text-anchor="middle" x="683.9375" y="-206.8" font-family="Times,serif" font-size="14.00" fill="#000000">gini = 0.2676190476190476</text>
<text text-anchor="middle" x="683.9375" y="-192.8" font-family="Times,serif" font-size="14.00" fill="#000000">samples = 35</text>
<text text-anchor="middle" x="683.9375" y="-178.8" font-family="Times,serif" font-size="14.00" fill="#000000">distribution = [15, 20]</text>
</g>
<!-- 8875672165&#45;&gt;9723131072 -->
<g id="edge17" class="edge">
<title>8875672165&#45;&gt;9723131072</title>
<path fill="none" stroke="#000000" d="M688.6841,-271.8089C688.1158,-263.6906 687.4971,-254.8517 686.8998,-246.3186"/>
<polygon fill="#000000" stroke="#000000" points="690.3765,-245.8619 686.1867,-236.1308 683.3936,-246.3508 690.3765,-245.8619"/>
<text text-anchor="middle" x="674.4644" y="-256.7724" font-family="Times,serif" font-size="14.00" fill="#000000">True</text>
</g>
<!-- 8317268160 -->
<g id="node19" class="node">
<title>8317268160</title>
<polygon fill="none" stroke="#000000" points="989.1124,-236 806.7626,-236 806.7626,-172 989.1124,-172 989.1124,-236"/>
<text text-anchor="middle" x="897.9375" y="-220.8" font-family="Times,serif" font-size="14.00" fill="#000000">X[11] &lt; 0.1334</text>
<text text-anchor="middle" x="897.9375" y="-206.8" font-family="Times,serif" font-size="14.00" fill="#000000">gini = 0.06436781609195387</text>
<text text-anchor="middle" x="897.9375" y="-192.8" font-family="Times,serif" font-size="14.00" fill="#000000">samples = 30</text>
<text text-anchor="middle" x="897.9375" y="-178.8" font-family="Times,serif" font-size="14.00" fill="#000000">distribution = [1, 29]</text>
</g>
<!-- 8875672165&#45;&gt;8317268160 -->
<g id="edge18" class="edge">
<title>8875672165&#45;&gt;8317268160</title>
<path fill="none" stroke="#000000" d="M757.2877,-271.9467C778.0859,-261.8993 801.1916,-250.7372 822.5655,-240.4116"/>
<polygon fill="#000000" stroke="#000000" points="824.126,-243.5448 831.6079,-236.0433 821.081,-237.2418 824.126,-243.5448"/>
<text text-anchor="middle" x="779.5985" y="-256.8305" font-family="Times,serif" font-size="14.00" fill="#000000">False</text>
</g>
<!-- 4943781019 -->
<g id="node20" class="node">
<title>4943781019</title>
<polygon fill="none" stroke="#000000" points="237.8126,-122 130.0624,-122 130.0624,-86 237.8126,-86 237.8126,-122"/>
<text text-anchor="middle" x="183.9375" y="-106.8" font-family="Times,serif" font-size="14.00" fill="#000000">samples = 55</text>
<text text-anchor="middle" x="183.9375" y="-92.8" font-family="Times,serif" font-size="14.00" fill="#000000">ratio = [1.0, 0.0]</text>
</g>
<!-- 3217516306&#45;&gt;4943781019 -->
<g id="edge19" class="edge">
<title>3217516306&#45;&gt;4943781019</title>
<path fill="none" stroke="#000000" d="M189.3622,-171.8089C188.3448,-159.0908 187.1858,-144.6043 186.2011,-132.2954"/>
<polygon fill="#000000" stroke="#000000" points="189.675,-131.8272 185.3886,-122.1382 182.6972,-132.3855 189.675,-131.8272"/>
<text text-anchor="middle" x="174.4197" y="-149.9674" font-family="Times,serif" font-size="14.00" fill="#000000">True</text>
</g>
<!-- 5402012155 -->
<g id="node21" class="node">
<title>5402012155</title>
<polygon fill="none" stroke="#000000" points="363.8126,-122 256.0624,-122 256.0624,-86 363.8126,-86 363.8126,-122"/>
<text text-anchor="middle" x="309.9375" y="-106.8" font-family="Times,serif" font-size="14.00" fill="#000000">samples = 1</text>
<text text-anchor="middle" x="309.9375" y="-92.8" font-family="Times,serif" font-size="14.00" fill="#000000">ratio = [0.0, 1.0]</text>
</g>
<!-- 3217516306&#45;&gt;5402012155 -->
<g id="edge20" class="edge">
<title>3217516306&#45;&gt;5402012155</title>
<path fill="none" stroke="#000000" d="M229.923,-171.8089C246.4463,-157.8061 265.499,-141.6597 280.8668,-128.6362"/>
<polygon fill="#000000" stroke="#000000" points="283.1683,-131.2736 288.5344,-122.1382 278.6426,-125.9333 283.1683,-131.2736"/>
<text text-anchor="middle" x="244.7328" y="-149.5363" font-family="Times,serif" font-size="14.00" fill="#000000">False</text>
</g>
<!-- 4685738186 -->
<g id="node22" class="node">
<title>4685738186</title>
<polygon fill="none" stroke="#000000" points="517.216,-136 384.659,-136 384.659,-72 517.216,-72 517.216,-136"/>
<text text-anchor="middle" x="450.9375" y="-120.8" font-family="Times,serif" font-size="14.00" fill="#000000">X[8] &lt; 0.075</text>
<text text-anchor="middle" x="450.9375" y="-106.8" font-family="Times,serif" font-size="14.00" fill="#000000">gini = 0.0</text>
<text text-anchor="middle" x="450.9375" y="-92.8" font-family="Times,serif" font-size="14.00" fill="#000000">samples = 15</text>
<text text-anchor="middle" x="450.9375" y="-78.8" font-family="Times,serif" font-size="14.00" fill="#000000">distribution = [1, 14]</text>
</g>
<!-- 9723131072&#45;&gt;4685738186 -->
<g id="edge21" class="edge">
<title>9723131072&#45;&gt;4685738186</title>
<path fill="none" stroke="#000000" d="M609.2534,-171.9467C582.8199,-160.6019 553.0749,-147.8358 526.5638,-136.4576"/>
<polygon fill="#000000" stroke="#000000" points="527.9019,-133.2232 517.3321,-132.4955 525.1411,-139.6558 527.9019,-133.2232"/>
<text text-anchor="middle" x="550.3557" y="-155.0358" font-family="Times,serif" font-size="14.00" fill="#000000">True</text>
</g>
<!-- 3411693676 -->
<g id="node23" class="node">
<title>3411693676</title>
<polygon fill="none" stroke="#000000" points="775.1124,-136 592.7626,-136 592.7626,-72 775.1124,-72 775.1124,-136"/>
<text text-anchor="middle" x="683.9375" y="-120.8" font-family="Times,serif" font-size="14.00" fill="#000000">X[0] &lt; 0.0164</text>
<text text-anchor="middle" x="683.9375" y="-106.8" font-family="Times,serif" font-size="14.00" fill="#000000">gini = 0.17647058823529418</text>
<text text-anchor="middle" x="683.9375" y="-92.8" font-family="Times,serif" font-size="14.00" fill="#000000">samples = 20</text>
<text text-anchor="middle" x="683.9375" y="-78.8" font-family="Times,serif" font-size="14.00" fill="#000000">distribution = [3, 17]</text>
</g>
<!-- 9723131072&#45;&gt;3411693676 -->
<g id="edge22" class="edge">
<title>9723131072&#45;&gt;3411693676</title>
<path fill="none" stroke="#000000" d="M683.9375,-171.8089C683.9375,-163.6906 683.9375,-154.8517 683.9375,-146.3186"/>
<polygon fill="#000000" stroke="#000000" points="687.4376,-146.1307 683.9375,-136.1308 680.4376,-146.1308 687.4376,-146.1307"/>
<text text-anchor="middle" x="669.1616" y="-156.7724" font-family="Times,serif" font-size="14.00" fill="#000000">False</text>
</g>
<!-- 5437530967 -->
<g id="node24" class="node">
<title>5437530967</title>
<polygon fill="none" stroke="#000000" points="951.8126,-122 844.0624,-122 844.0624,-86 951.8126,-86 951.8126,-122"/>
<text text-anchor="middle" x="897.9375" y="-106.8" font-family="Times,serif" font-size="14.00" fill="#000000">samples = 1</text>
<text text-anchor="middle" x="897.9375" y="-92.8" font-family="Times,serif" font-size="14.00" fill="#000000">ratio = [1.0, 0.0]</text>
</g>
<!-- 8317268160&#45;&gt;5437530967 -->
<g id="edge23" class="edge">
<title>8317268160&#45;&gt;5437530967</title>
<path fill="none" stroke="#000000" d="M897.9375,-171.8089C897.9375,-159.0908 897.9375,-144.6043 897.9375,-132.2954"/>
<polygon fill="#000000" stroke="#000000" points="901.4376,-132.1382 897.9375,-122.1382 894.4376,-132.1383 901.4376,-132.1382"/>
<text text-anchor="middle" x="884.9663" y="-149.9674" font-family="Times,serif" font-size="14.00" fill="#000000">True</text>
</g>
<!-- 6088124373 -->
<g id="node25" class="node">
<title>6088124373</title>
<polygon fill="none" stroke="#000000" points="1111.216,-136 978.659,-136 978.659,-72 1111.216,-72 1111.216,-136"/>
<text text-anchor="middle" x="1044.9375" y="-120.8" font-family="Times,serif" font-size="14.00" fill="#000000">X[17] &lt; 0.2234</text>
<text text-anchor="middle" x="1044.9375" y="-106.8" font-family="Times,serif" font-size="14.00" fill="#000000">gini = 0.0</text>
<text text-anchor="middle" x="1044.9375" y="-92.8" font-family="Times,serif" font-size="14.00" fill="#000000">samples = 29</text>
<text text-anchor="middle" x="1044.9375" y="-78.8" font-family="Times,serif" font-size="14.00" fill="#000000">distribution = [1, 28]</text>
</g>
<!-- 8317268160&#45;&gt;6088124373 -->
<g id="edge24" class="edge">
<title>8317268160&#45;&gt;6088124373</title>
<path fill="none" stroke="#000000" d="M945.2584,-171.8089C959.2906,-162.2632 974.7872,-151.7213 989.2957,-141.8516"/>
<polygon fill="#000000" stroke="#000000" points="991.4057,-144.6493 997.7053,-136.1308 987.4684,-138.8616 991.4057,-144.6493"/>
<text text-anchor="middle" x="956.8622" y="-156.6636" font-family="Times,serif" font-size="14.00" fill="#000000">False</text>
</g>
<!-- 7161837865 -->
<g id="node26" class="node">
<title>7161837865</title>
<polygon fill="none" stroke="#000000" points="378.8126,-36 271.0624,-36 271.0624,0 378.8126,0 378.8126,-36"/>
<text text-anchor="middle" x="324.9375" y="-20.8" font-family="Times,serif" font-size="14.00" fill="#000000">samples = 1</text>
<text text-anchor="middle" x="324.9375" y="-6.8" font-family="Times,serif" font-size="14.00" fill="#000000">ratio = [0.0, 1.0]</text>
</g>
<!-- 4685738186&#45;&gt;7161837865 -->
<g id="edge25" class="edge">
<title>4685738186&#45;&gt;7161837865</title>
<path fill="none" stroke="#000000" d="M404.0198,-71.9768C389.4413,-62.0264 373.6315,-51.2356 360.0069,-41.9362"/>
<polygon fill="#000000" stroke="#000000" points="361.6367,-38.8111 351.404,-36.0644 357.6904,-44.5928 361.6367,-38.8111"/>
<text text-anchor="middle" x="364.8414" y="-56.8893" font-family="Times,serif" font-size="14.00" fill="#000000">True</text>
</g>
<!-- 3859481935 -->
<g id="node27" class="node">
<title>3859481935</title>
<polygon fill="none" stroke="#000000" points="504.8126,-36 397.0624,-36 397.0624,0 504.8126,0 504.8126,-36"/>
<text text-anchor="middle" x="450.9375" y="-20.8" font-family="Times,serif" font-size="14.00" fill="#000000">samples = 14</text>
<text text-anchor="middle" x="450.9375" y="-6.8" font-family="Times,serif" font-size="14.00" fill="#000000">ratio = [1.0, 0.0]</text>
</g>
<!-- 4685738186&#45;&gt;3859481935 -->
<g id="edge26" class="edge">
<title>4685738186&#45;&gt;3859481935</title>
<path fill="none" stroke="#000000" d="M450.9375,-71.9768C450.9375,-63.609 450.9375,-54.647 450.9375,-46.4774"/>
<polygon fill="#000000" stroke="#000000" points="454.4376,-46.3107 450.9375,-36.3108 447.4376,-46.3108 454.4376,-46.3107"/>
<text text-anchor="middle" x="436.1616" y="-56.7267" font-family="Times,serif" font-size="14.00" fill="#000000">False</text>
</g>
<!-- 6091771327 -->
<g id="node28" class="node">
<title>6091771327</title>
<polygon fill="none" stroke="#000000" points="630.8126,-36 523.0624,-36 523.0624,0 630.8126,0 630.8126,-36"/>
<text text-anchor="middle" x="576.9375" y="-20.8" font-family="Times,serif" font-size="14.00" fill="#000000">samples = 3</text>
<text text-anchor="middle" x="576.9375" y="-6.8" font-family="Times,serif" font-size="14.00" fill="#000000">ratio = [1.0, 0.0]</text>
</g>
<!-- 3411693676&#45;&gt;6091771327 -->
<g id="edge27" class="edge">
<title>3411693676&#45;&gt;6091771327</title>
<path fill="none" stroke="#000000" d="M644.0946,-71.9768C631.9503,-62.2159 618.7998,-51.6463 607.3818,-42.4692"/>
<polygon fill="#000000" stroke="#000000" points="609.4002,-39.6011 599.413,-36.0644 605.0149,-45.0573 609.4002,-39.6011"/>
<text text-anchor="middle" x="608.7106" y="-56.7627" font-family="Times,serif" font-size="14.00" fill="#000000">True</text>
</g>
<!-- 2451887680 -->
<g id="node29" class="node">
<title>2451887680</title>
<polygon fill="none" stroke="#000000" points="972.7871,-36 649.0879,-36 649.0879,0 972.7871,0 972.7871,-36"/>
<text text-anchor="middle" x="810.9375" y="-20.8" font-family="Times,serif" font-size="14.00" fill="#000000">samples = 17</text>
<text text-anchor="middle" x="810.9375" y="-6.8" font-family="Times,serif" font-size="14.00" fill="#000000">ratio = [0.11764705882352941, 0.8823529411764706]</text>
</g>
<!-- 3411693676&#45;&gt;2451887680 -->
<g id="edge28" class="edge">
<title>3411693676&#45;&gt;2451887680</title>
<path fill="none" stroke="#000000" d="M731.2276,-71.9768C745.9218,-62.0264 761.8571,-51.2356 775.5898,-41.9362"/>
<polygon fill="#000000" stroke="#000000" points="777.9432,-44.5696 784.2609,-36.0644 774.0183,-38.7735 777.9432,-44.5696"/>
<text text-anchor="middle" x="742.8669" y="-56.8893" font-family="Times,serif" font-size="14.00" fill="#000000">False</text>
</g>
<!-- 9376384328 -->
<g id="node30" class="node">
<title>9376384328</title>
<polygon fill="none" stroke="#000000" points="1098.8126,-36 991.0624,-36 991.0624,0 1098.8126,0 1098.8126,-36"/>
<text text-anchor="middle" x="1044.9375" y="-20.8" font-family="Times,serif" font-size="14.00" fill="#000000">samples = 1</text>
<text text-anchor="middle" x="1044.9375" y="-6.8" font-family="Times,serif" font-size="14.00" fill="#000000">ratio = [1.0, 0.0]</text>
</g>
<!-- 6088124373&#45;&gt;9376384328 -->
<g id="edge29" class="edge">
<title>6088124373&#45;&gt;9376384328</title>
<path fill="none" stroke="#000000" d="M1044.9375,-71.9768C1044.9375,-63.609 1044.9375,-54.647 1044.9375,-46.4774"/>
<polygon fill="#000000" stroke="#000000" points="1048.4376,-46.3107 1044.9375,-36.3108 1041.4376,-46.3108 1048.4376,-46.3107"/>
<text text-anchor="middle" x="1031.9663" y="-56.7267" font-family="Times,serif" font-size="14.00" fill="#000000">True</text>
</g>
<!-- 2595094352 -->
<g id="node31" class="node">
<title>2595094352</title>
<polygon fill="none" stroke="#000000" points="1224.8126,-36 1117.0624,-36 1117.0624,0 1224.8126,0 1224.8126,-36"/>
<text text-anchor="middle" x="1170.9375" y="-20.8" font-family="Times,serif" font-size="14.00" fill="#000000">samples = 28</text>
<text text-anchor="middle" x="1170.9375" y="-6.8" font-family="Times,serif" font-size="14.00" fill="#000000">ratio = [0.0, 1.0]</text>
</g>
<!-- 6088124373&#45;&gt;2595094352 -->
<g id="edge30" class="edge">
<title>6088124373&#45;&gt;2595094352</title>
<path fill="none" stroke="#000000" d="M1091.8552,-71.9768C1106.4337,-62.0264 1122.2435,-51.2356 1135.8681,-41.9362"/>
<polygon fill="#000000" stroke="#000000" points="1138.1846,-44.5928 1144.471,-36.0644 1134.2383,-38.8111 1138.1846,-44.5928"/>
<text text-anchor="middle" x="1103.2865" y="-56.8893" font-family="Times,serif" font-size="14.00" fill="#000000">False</text>
</g>
</g>
</svg>
