<?xml version="1.0" encoding="UTF-8" standalone="no"?>
<!DOCTYPE svg PUBLIC "-//W3C//DTD SVG 1.1//EN"
 "http://www.w3.org/Graphics/SVG/1.1/DTD/svg11.dtd">
<!-- Generated by graphviz version 2.40.1 (20161225.0304)
 -->
<!-- Title: Tree Pages: 1 -->
<svg width="1484pt" height="644pt"
 viewBox="0.00 0.00 1483.88 644.00" xmlns="http://www.w3.org/2000/svg" xmlns:xlink="http://www.w3.org/1999/xlink">
<g id="graph0" class="graph" transform="scale(1 1) rotate(0) translate(4 640)">
<title>Tree</title>
<polygon fill="#ffffff" stroke="transparent" points="-4,4 -4,-640 1479.875,-640 1479.875,4 -4,4"/>
<!-- 6024831014 -->
<g id="node1" class="node">
<title>6024831014</title>
<polygon fill="none" stroke="#000000" points="711.6124,-636 536.2626,-636 536.2626,-572 711.6124,-572 711.6124,-636"/>
<text text-anchor="middle" x="623.9375" y="-620.8" font-family="Times,serif" font-size="14.00" fill="#000000">X[10] &lt; 0.1734</text>
<text text-anchor="middle" x="623.9375" y="-606.8" font-family="Times,serif" font-size="14.00" fill="#000000">gini = 0.3866231853353914</text>
<text text-anchor="middle" x="623.9375" y="-592.8" font-family="Times,serif" font-size="14.00" fill="#000000">samples = 188</text>
<text text-anchor="middle" x="623.9375" y="-578.8" font-family="Times,serif" font-size="14.00" fill="#000000">distribution = [74, 114]</text>
</g>
<!-- 2982352972 -->
<g id="node2" class="node">
<title>2982352972</title>
<polygon fill="none" stroke="#000000" points="613.6124,-536 438.2626,-536 438.2626,-472 613.6124,-472 613.6124,-536"/>
<text text-anchor="middle" x="525.9375" y="-520.8" font-family="Times,serif" font-size="14.00" fill="#000000">X[3] &lt; 0.0525</text>
<text text-anchor="middle" x="525.9375" y="-506.8" font-family="Times,serif" font-size="14.00" fill="#000000">gini = 0.1908688349366316</text>
<text text-anchor="middle" x="525.9375" y="-492.8" font-family="Times,serif" font-size="14.00" fill="#000000">samples = 74</text>
<text text-anchor="middle" x="525.9375" y="-478.8" font-family="Times,serif" font-size="14.00" fill="#000000">distribution = [59, 15]</text>
</g>
<!-- 6024831014&#45;&gt;2982352972 -->
<g id="edge1" class="edge">
<title>6024831014&#45;&gt;2982352972</title>
<path fill="none" stroke="#000000" d="M592.3902,-571.8089C583.56,-562.7985 573.8599,-552.9004 564.6651,-543.518"/>
<polygon fill="#000000" stroke="#000000" points="566.9247,-540.8232 557.4256,-536.1308 561.9252,-545.7227 566.9247,-540.8232"/>
<text text-anchor="middle" x="561.739" y="-556.568" font-family="Times,serif" font-size="14.00" fill="#000000">True</text>
</g>
<!-- 4216920791 -->
<g id="node3" class="node">
<title>4216920791</title>
<polygon fill="none" stroke="#000000" points="828.6124,-536 653.2626,-536 653.2626,-472 828.6124,-472 828.6124,-536"/>
<text text-anchor="middle" x="740.9375" y="-520.8" font-family="Times,serif" font-size="14.00" fill="#000000">X[44] &lt; 0.2662</text>
<text text-anchor="middle" x="740.9375" y="-506.8" font-family="Times,serif" font-size="14.00" fill="#000000">gini = 0.3526099198613819</text>
<text text-anchor="middle" x="740.9375" y="-492.8" font-family="Times,serif" font-size="14.00" fill="#000000">samples = 114</text>
<text text-anchor="middle" x="740.9375" y="-478.8" font-family="Times,serif" font-size="14.00" fill="#000000">distribution = [81, 33]</text>
</g>
<!-- 6024831014&#45;&gt;4216920791 -->
<g id="edge2" class="edge">
<title>6024831014&#45;&gt;4216920791</title>
<path fill="none" stroke="#000000" d="M661.6011,-571.8089C672.4564,-562.5308 684.4129,-552.3116 695.678,-542.6833"/>
<polygon fill="#000000" stroke="#000000" points="698.0168,-545.2886 703.3445,-536.1308 693.4687,-539.9674 698.0168,-545.2886"/>
<text text-anchor="middle" x="667.4912" y="-556.9457" font-family="Times,serif" font-size="14.00" fill="#000000">False</text>
</g>
<!-- 9869161638 -->
<g id="node4" class="node">
<title>9869161638</title>
<polygon fill="none" stroke="#000000" points="402.1124,-436 219.7626,-436 219.7626,-372 402.1124,-372 402.1124,-436"/>
<text text-anchor="middle" x="310.9375" y="-420.8" font-family="Times,serif" font-size="14.00" fill="#000000">X[0] &lt; 0.0412</text>
<text text-anchor="middle" x="310.9375" y="-406.8" font-family="Times,serif" font-size="14.00" fill="#000000">gini = 0.06541778174249183</text>
<text text-anchor="middle" x="310.9375" y="-392.8" font-family="Times,serif" font-size="14.00" fill="#000000">samples = 59</text>
<text text-anchor="middle" x="310.9375" y="-378.8" font-family="Times,serif" font-size="14.00" fill="#000000">distribution = [57, 2]</text>
</g>
<!-- 2982352972&#45;&gt;9869161638 -->
<g id="edge3" class="edge">
<title>2982352972&#45;&gt;9869161638</title>
<path fill="none" stroke="#000000" d="M457.023,-471.9467C435.3246,-461.8545 411.2081,-450.6375 388.9253,-440.2734"/>
<polygon fill="#000000" stroke="#000000" points="390.3739,-437.0871 379.8306,-436.0433 387.4217,-443.4342 390.3739,-437.0871"/>
<text text-anchor="middle" x="405.3564" y="-456.7489" font-family="Times,serif" font-size="14.00" fill="#000000">True</text>
</g>
<!-- 4500897446 -->
<g id="node5" class="node">
<title>4500897446</title>
<polygon fill="none" stroke="#000000" points="613.6124,-436 438.2626,-436 438.2626,-372 613.6124,-372 613.6124,-436"/>
<text text-anchor="middle" x="525.9375" y="-420.8" font-family="Times,serif" font-size="14.00" fill="#000000">X[44] &lt; 0.1675</text>
<text text-anchor="middle" x="525.9375" y="-406.8" font-family="Times,serif" font-size="14.00" fill="#000000">gini = 0.1904761904761905</text>
<text text-anchor="middle" x="525.9375" y="-392.8" font-family="Times,serif" font-size="14.00" fill="#000000">samples = 15</text>
<text text-anchor="middle" x="525.9375" y="-378.8" font-family="Times,serif" font-size="14.00" fill="#000000">distribution = [7, 8]</text>
</g>
<!-- 2982352972&#45;&gt;4500897446 -->
<g id="edge4" class="edge">
<title>2982352972&#45;&gt;4500897446</title>
<path fill="none" stroke="#000000" d="M525.9375,-471.8089C525.9375,-463.6906 525.9375,-454.8517 525.9375,-446.3186"/>
<polygon fill="#000000" stroke="#000000" points="529.4376,-446.1307 525.9375,-436.1308 522.4376,-446.1308 529.4376,-446.1307"/>
<text text-anchor="middle" x="511.1616" y="-456.7724" font-family="Times,serif" font-size="14.00" fill="#000000">False</text>
</g>
<!-- 5345824640 -->
<g id="node6" class="node">
<title>5345824640</title>
<polygon fill="none" stroke="#000000" points="832.1124,-436 649.7626,-436 649.7626,-372 832.1124,-372 832.1124,-436"/>
<text text-anchor="middle" x="740.9375" y="-420.8" font-family="Times,serif" font-size="14.00" fill="#000000">X[35] &lt; 0.5564</text>
<text text-anchor="middle" x="740.9375" y="-406.8" font-family="Times,serif" font-size="14.00" fill="#000000">gini = 0.35099715099715095</text>
<text text-anchor="middle" x="740.9375" y="-392.8" font-family="Times,serif" font-size="14.00" fill="#000000">samples = 81</text>
<text text-anchor="middle" x="740.9375" y="-378.8" font-family="Times,serif" font-size="14.00" fill="#000000">distribution = [65, 16]</text>
</g>
<!-- 4216920791&#45;&gt;5345824640 -->
<g id="edge5" class="edge">
<title>4216920791&#45;&gt;5345824640</title>
<path fill="none" stroke="#000000" d="M740.9375,-471.8089C740.9375,-463.6906 740.9375,-454.8517 740.9375,-446.3186"/>
<polygon fill="#000000" stroke="#000000" points="744.4376,-446.1307 740.9375,-436.1308 737.4376,-446.1308 744.4376,-446.1307"/>
<text text-anchor="middle" x="727.9663" y="-456.7724" font-family="Times,serif" font-size="14.00" fill="#000000">True</text>
</g>
<!-- 7232568316 -->
<g id="node7" class="node">
<title>7232568316</title>
<polygon fill="none" stroke="#000000" points="957.8126,-422 850.0624,-422 850.0624,-386 957.8126,-386 957.8126,-422"/>
<text text-anchor="middle" x="903.9375" y="-406.8" font-family="Times,serif" font-size="14.00" fill="#000000">samples = 33</text>
<text text-anchor="middle" x="903.9375" y="-392.8" font-family="Times,serif" font-size="14.00" fill="#000000">ratio = [0.0, 1.0]</text>
</g>
<!-- 4216920791&#45;&gt;7232568316 -->
<g id="edge6" class="edge">
<title>4216920791&#45;&gt;7232568316</title>
<path fill="none" stroke="#000000" d="M793.409,-471.8089C816.9664,-457.3565 844.246,-440.6206 865.8095,-427.3914"/>
<polygon fill="#000000" stroke="#000000" points="867.6787,-430.3509 874.3722,-422.1382 864.0181,-424.3843 867.6787,-430.3509"/>
<text text-anchor="middle" x="819.0779" y="-449.7961" font-family="Times,serif" font-size="14.00" fill="#000000">False</text>
</g>
<!-- 2547858957 -->
<g id="node8" class="node">
<title>2547858957</title>
<polygon fill="none" stroke="#000000" points="238.5999,-336 57.2751,-336 57.2751,-272 238.5999,-272 238.5999,-336"/>
<text text-anchor="middle" x="147.9375" y="-320.8" font-family="Times,serif" font-size="14.00" fill="#000000">X[2] &lt; 0.0024</text>
<text text-anchor="middle" x="147.9375" y="-306.8" font-family="Times,serif" font-size="14.00" fill="#000000">gini = 0.03446115288220553</text>
<text text-anchor="middle" x="147.9375" y="-292.8" font-family="Times,serif" font-size="14.00" fill="#000000">samples = 57</text>
<text text-anchor="middle" x="147.9375" y="-278.8" font-family="Times,serif" font-size="14.00" fill="#000000">distribution = [1, 56]</text>
</g>
<!-- 9869161638&#45;&gt;2547858957 -->
<g id="edge7" class="edge">
<title>9869161638&#45;&gt;2547858957</title>
<path fill="none" stroke="#000000" d="M258.466,-371.8089C242.7611,-362.174 225.4018,-351.5241 209.1848,-341.575"/>
<polygon fill="#000000" stroke="#000000" points="210.6647,-338.3768 200.3106,-336.1308 207.0041,-344.3434 210.6647,-338.3768"/>
<text text-anchor="middle" x="216.3561" y="-356.7324" font-family="Times,serif" font-size="14.00" fill="#000000">True</text>
</g>
<!-- 7948422874 -->
<g id="node9" class="node">
<title>7948422874</title>
<polygon fill="none" stroke="#000000" points="364.8126,-322 257.0624,-322 257.0624,-286 364.8126,-286 364.8126,-322"/>
<text text-anchor="middle" x="310.9375" y="-306.8" font-family="Times,serif" font-size="14.00" fill="#000000">samples = 2</text>
<text text-anchor="middle" x="310.9375" y="-292.8" font-family="Times,serif" font-size="14.00" fill="#000000">ratio = [0.0, 1.0]</text>
</g>
<!-- 9869161638&#45;&gt;7948422874 -->
<g id="edge8" class="edge">
<title>9869161638&#45;&gt;7948422874</title>
<path fill="none" stroke="#000000" d="M310.9375,-371.8089C310.9375,-359.0908 310.9375,-344.6043 310.9375,-332.2954"/>
<polygon fill="#000000" stroke="#000000" points="314.4376,-332.1382 310.9375,-322.1382 307.4376,-332.1383 314.4376,-332.1382"/>
<text text-anchor="middle" x="296.1616" y="-349.9674" font-family="Times,serif" font-size="14.00" fill="#000000">False</text>
</g>
<!-- 6433874808 -->
<g id="node10" class="node">
<title>6433874808</title>
<polygon fill="none" stroke="#000000" points="508.716,-336 383.159,-336 383.159,-272 508.716,-272 508.716,-336"/>
<text text-anchor="middle" x="445.9375" y="-320.8" font-family="Times,serif" font-size="14.00" fill="#000000">X[8] &lt; 0.0889</text>
<text text-anchor="middle" x="445.9375" y="-306.8" font-family="Times,serif" font-size="14.00" fill="#000000">gini = 0.0</text>
<text text-anchor="middle" x="445.9375" y="-292.8" font-family="Times,serif" font-size="14.00" fill="#000000">samples = 7</text>
<text text-anchor="middle" x="445.9375" y="-278.8" font-family="Times,serif" font-size="14.00" fill="#000000">distribution = [2, 5]</text>
</g>
<!-- 4500897446&#45;&gt;6433874808 -->
<g id="edge9" class="edge">
<title>4500897446&#45;&gt;6433874808</title>
<path fill="none" stroke="#000000" d="M500.1846,-371.8089C493.119,-362.9769 485.3711,-353.2921 477.9982,-344.0759"/>
<polygon fill="#000000" stroke="#000000" points="480.6221,-341.753 471.6421,-336.1308 475.156,-346.1259 480.6221,-341.753"/>
<text text-anchor="middle" x="473.0722" y="-356.9323" font-family="Times,serif" font-size="14.00" fill="#000000">True</text>
</g>
<!-- 7833314242 -->
<g id="node11" class="node">
<title>7833314242</title>
<polygon fill="none" stroke="#000000" points="634.8126,-322 527.0624,-322 527.0624,-286 634.8126,-286 634.8126,-322"/>
<text text-anchor="middle" x="580.9375" y="-306.8" font-family="Times,serif" font-size="14.00" fill="#000000">samples = 8</text>
<text text-anchor="middle" x="580.9375" y="-292.8" font-family="Times,serif" font-size="14.00" fill="#000000">ratio = [0.0, 1.0]</text>
</g>
<!-- 4500897446&#45;&gt;7833314242 -->
<g id="edge10" class="edge">
<title>4500897446&#45;&gt;7833314242</title>
<path fill="none" stroke="#000000" d="M543.6426,-371.8089C550.8495,-358.7054 559.0889,-343.7247 565.9871,-331.1825"/>
<polygon fill="#000000" stroke="#000000" points="569.209,-332.5871 570.9615,-322.1382 563.0755,-329.2137 569.209,-332.5871"/>
<text text-anchor="middle" x="542.6549" y="-349.5394" font-family="Times,serif" font-size="14.00" fill="#000000">False</text>
</g>
<!-- 6901030300 -->
<g id="node12" class="node">
<title>6901030300</title>
<polygon fill="none" stroke="#000000" points="828.6124,-336 653.2626,-336 653.2626,-272 828.6124,-272 828.6124,-336"/>
<text text-anchor="middle" x="740.9375" y="-320.8" font-family="Times,serif" font-size="14.00" fill="#000000">X[50] &lt; 0.0125</text>
<text text-anchor="middle" x="740.9375" y="-306.8" font-family="Times,serif" font-size="14.00" fill="#000000">gini = 0.3152658152658153</text>
<text text-anchor="middle" x="740.9375" y="-292.8" font-family="Times,serif" font-size="14.00" fill="#000000">samples = 65</text>
<text text-anchor="middle" x="740.9375" y="-278.8" font-family="Times,serif" font-size="14.00" fill="#000000">distribution = [27, 38]</text>
</g>
<!-- 5345824640&#45;&gt;6901030300 -->
<g id="edge11" class="edge">
<title>5345824640&#45;&gt;6901030300</title>
<path fill="none" stroke="#000000" d="M740.9375,-371.8089C740.9375,-363.6906 740.9375,-354.8517 740.9375,-346.3186"/>
<polygon fill="#000000" stroke="#000000" points="744.4376,-346.1307 740.9375,-336.1308 737.4376,-346.1308 744.4376,-346.1307"/>
<text text-anchor="middle" x="727.9663" y="-356.7724" font-family="Times,serif" font-size="14.00" fill="#000000">True</text>
</g>
<!-- 1111524703 -->
<g id="node13" class="node">
<title>1111524703</title>
<polygon fill="none" stroke="#000000" points="954.8126,-322 847.0624,-322 847.0624,-286 954.8126,-286 954.8126,-322"/>
<text text-anchor="middle" x="900.9375" y="-306.8" font-family="Times,serif" font-size="14.00" fill="#000000">samples = 16</text>
<text text-anchor="middle" x="900.9375" y="-292.8" font-family="Times,serif" font-size="14.00" fill="#000000">ratio = [1.0, 0.0]</text>
</g>
<!-- 5345824640&#45;&gt;1111524703 -->
<g id="edge12" class="edge">
<title>5345824640&#45;&gt;1111524703</title>
<path fill="none" stroke="#000000" d="M792.4432,-371.8089C815.4643,-357.4207 842.1066,-340.7693 863.2287,-327.568"/>
<polygon fill="#000000" stroke="#000000" points="865.2914,-330.4063 871.9163,-322.1382 861.5813,-324.4703 865.2914,-330.4063"/>
<text text-anchor="middle" x="817.4743" y="-349.7296" font-family="Times,serif" font-size="14.00" fill="#000000">False</text>
</g>
<!-- 2022203636 -->
<g id="node14" class="node">
<title>2022203636</title>
<polygon fill="none" stroke="#000000" points="107.8126,-222 .0624,-222 .0624,-186 107.8126,-186 107.8126,-222"/>
<text text-anchor="middle" x="53.9375" y="-206.8" font-family="Times,serif" font-size="14.00" fill="#000000">samples = 1</text>
<text text-anchor="middle" x="53.9375" y="-192.8" font-family="Times,serif" font-size="14.00" fill="#000000">ratio = [0.0, 1.0]</text>
</g>
<!-- 2547858957&#45;&gt;2022203636 -->
<g id="edge13" class="edge">
<title>2547858957&#45;&gt;2022203636</title>
<path fill="none" stroke="#000000" d="M117.6779,-271.8089C104.8775,-258.1915 90.1716,-242.5469 78.1129,-229.7185"/>
<polygon fill="#000000" stroke="#000000" points="80.3868,-227.0273 70.9874,-222.1382 75.2864,-231.8217 80.3868,-227.0273"/>
<text text-anchor="middle" x="81.4751" y="-249.8944" font-family="Times,serif" font-size="14.00" fill="#000000">True</text>
</g>
<!-- 1439913420 -->
<g id="node15" class="node">
<title>1439913420</title>
<polygon fill="none" stroke="#000000" points="258.216,-236 125.659,-236 125.659,-172 258.216,-172 258.216,-236"/>
<text text-anchor="middle" x="191.9375" y="-220.8" font-family="Times,serif" font-size="14.00" fill="#000000">X[27] &lt; 1.0</text>
<text text-anchor="middle" x="191.9375" y="-206.8" font-family="Times,serif" font-size="14.00" fill="#000000">gini = 0.0</text>
<text text-anchor="middle" x="191.9375" y="-192.8" font-family="Times,serif" font-size="14.00" fill="#000000">samples = 56</text>
<text text-anchor="middle" x="191.9375" y="-178.8" font-family="Times,serif" font-size="14.00" fill="#000000">distribution = [55, 1]</text>
</g>
<!-- 2547858957&#45;&gt;1439913420 -->
<g id="edge14" class="edge">
<title>2547858957&#45;&gt;1439913420</title>
<path fill="none" stroke="#000000" d="M162.1016,-271.8089C165.7914,-263.4229 169.8195,-254.2681 173.6882,-245.4757"/>
<polygon fill="#000000" stroke="#000000" points="176.9761,-246.6935 177.8,-236.1308 170.5689,-243.8743 176.9761,-246.6935"/>
<text text-anchor="middle" x="155.0702" y="-257.0078" font-family="Times,serif" font-size="14.00" fill="#000000">False</text>
</g>
<!-- 6514042575 -->
<g id="node16" class="node">
<title>6514042575</title>
<polygon fill="none" stroke="#000000" points="477.8126,-222 370.0624,-222 370.0624,-186 477.8126,-186 477.8126,-222"/>
<text text-anchor="middle" x="423.9375" y="-206.8" font-family="Times,serif" font-size="14.00" fill="#000000">samples = 2</text>
<text text-anchor="middle" x="423.9375" y="-192.8" font-family="Times,serif" font-size="14.00" fill="#000000">ratio = [0.0, 1.0]</text>
</g>
<!-- 6433874808&#45;&gt;6514042575 -->
<g id="edge15" class="edge">
<title>6433874808&#45;&gt;6514042575</title>
<path fill="none" stroke="#000000" d="M438.8555,-271.8089C436.0292,-258.9623 432.806,-244.3115 430.0806,-231.9231"/>
<polygon fill="#000000" stroke="#000000" points="433.4949,-231.1526 427.9279,-222.1382 426.6583,-232.6567 433.4949,-231.1526"/>
<text text-anchor="middle" x="420.4778" y="-250.034" font-family="Times,serif" font-size="14.00" fill="#000000">True</text>
</g>
<!-- 9625326158 -->
<g id="node17" class="node">
<title>9625326158</title>
<polygon fill="none" stroke="#000000" points="603.8126,-222 496.0624,-222 496.0624,-186 603.8126,-186 603.8126,-222"/>
<text text-anchor="middle" x="549.9375" y="-206.8" font-family="Times,serif" font-size="14.00" fill="#000000">samples = 5</text>
<text text-anchor="middle" x="549.9375" y="-192.8" font-family="Times,serif" font-size="14.00" fill="#000000">ratio = [1.0, 0.0]</text>
</g>
<!-- 6433874808&#45;&gt;9625326158 -->
<g id="edge16" class="edge">
<title>6433874808&#45;&gt;9625326158</title>
<path fill="none" stroke="#000000" d="M479.4162,-271.8089C493.7119,-258.0631 510.1559,-242.2515 523.5671,-229.3562"/>
<polygon fill="#000000" stroke="#000000" points="526.2913,-231.5923 531.0737,-222.1382 521.4395,-226.5464 526.2913,-231.5923"/>
<text text-anchor="middle" x="490.5874" y="-249.6598" font-family="Times,serif" font-size="14.00" fill="#000000">False</text>
</g>
<!-- 8176074814 -->
<g id="node18" class="node">
<title>8176074814</title>
<polygon fill="none" stroke="#000000" points="818.1124,-236 635.7626,-236 635.7626,-172 818.1124,-172 818.1124,-236"/>
<text text-anchor="middle" x="726.9375" y="-220.8" font-family="Times,serif" font-size="14.00" fill="#000000">X[51] &lt; 0.0095</text>
<text text-anchor="middle" x="726.9375" y="-206.8" font-family="Times,serif" font-size="14.00" fill="#000000">gini = 0.28001628001627993</text>
<text text-anchor="middle" x="726.9375" y="-192.8" font-family="Times,serif" font-size="14.00" fill="#000000">samples = 27</text>
<text text-anchor="middle" x="726.9375" y="-178.8" font-family="Times,serif" font-size="14.00" fill="#000000">distribution = [13, 14]</text>
</g>
<!-- 6901030300&#45;&gt;8176074814 -->
<g id="edge17" class="edge">
<title>6901030300&#45;&gt;8176074814</title>
<path fill="none" stroke="#000000" d="M736.4307,-271.8089C735.2817,-263.6014 734.0295,-254.6574 732.8227,-246.0374"/>
<polygon fill="#000000" stroke="#000000" points="736.2886,-245.5489 731.4358,-236.1308 729.3562,-246.5195 736.2886,-245.5489"/>
<text text-anchor="middle" x="720.9345" y="-256.5725" font-family="Times,serif" font-size="14.00" fill="#000000">True</text>
</g>
<!-- 2025222459 -->
<g id="node19" class="node">
<title>2025222459</title>
<polygon fill="none" stroke="#000000" points="1183.6124,-236 1008.2626,-236 1008.2626,-172 1183.6124,-172 1183.6124,-236"/>
<text text-anchor="middle" x="1095.9375" y="-220.8" font-family="Times,serif" font-size="14.00" fill="#000000">X[41] &lt; 0.0866</text>
<text text-anchor="middle" x="1095.9375" y="-206.8" font-family="Times,serif" font-size="14.00" fill="#000000">gini = 0.1385448916408668</text>
<text text-anchor="middle" x="1095.9375" y="-192.8" font-family="Times,serif" font-size="14.00" fill="#000000">samples = 38</text>
<text text-anchor="middle" x="1095.9375" y="-178.8" font-family="Times,serif" font-size="14.00" fill="#000000">distribution = [4, 34]</text>
</g>
<!-- 6901030300&#45;&gt;2025222459 -->
<g id="edge18" class="edge">
<title>6901030300&#45;&gt;2025222459</title>
<path fill="none" stroke="#000000" d="M828.631,-274.8046C831.7677,-273.845 834.8772,-272.9072 837.9375,-272 890.6005,-256.389 949.8322,-240.6502 998.248,-228.2514"/>
<polygon fill="#000000" stroke="#000000" points="999.2714,-231.6025 1008.0949,-225.7375 997.5398,-224.82 999.2714,-231.6025"/>
<text text-anchor="middle" x="904.99" y="-251.6993" font-family="Times,serif" font-size="14.00" fill="#000000">False</text>
</g>
<!-- 8165799874 -->
<g id="node20" class="node">
<title>8165799874</title>
<polygon fill="none" stroke="#000000" points="195.8126,-122 88.0624,-122 88.0624,-86 195.8126,-86 195.8126,-122"/>
<text text-anchor="middle" x="141.9375" y="-106.8" font-family="Times,serif" font-size="14.00" fill="#000000">samples = 55</text>
<text text-anchor="middle" x="141.9375" y="-92.8" font-family="Times,serif" font-size="14.00" fill="#000000">ratio = [1.0, 0.0]</text>
</g>
<!-- 1439913420&#45;&gt;8165799874 -->
<g id="edge19" class="edge">
<title>1439913420&#45;&gt;8165799874</title>
<path fill="none" stroke="#000000" d="M175.842,-171.8089C169.2902,-158.7054 161.7999,-143.7247 155.5288,-131.1825"/>
<polygon fill="#000000" stroke="#000000" points="158.6093,-129.5172 151.0066,-122.1382 152.3483,-132.6478 158.6093,-129.5172"/>
<text text-anchor="middle" x="150.336" y="-149.5394" font-family="Times,serif" font-size="14.00" fill="#000000">True</text>
</g>
<!-- 4952626714 -->
<g id="node21" class="node">
<title>4952626714</title>
<polygon fill="none" stroke="#000000" points="321.8126,-122 214.0624,-122 214.0624,-86 321.8126,-86 321.8126,-122"/>
<text text-anchor="middle" x="267.9375" y="-106.8" font-family="Times,serif" font-size="14.00" fill="#000000">samples = 1</text>
<text text-anchor="middle" x="267.9375" y="-92.8" font-family="Times,serif" font-size="14.00" fill="#000000">ratio = [0.0, 1.0]</text>
</g>
<!-- 1439913420&#45;&gt;4952626714 -->
<g id="edge20" class="edge">
<title>1439913420&#45;&gt;4952626714</title>
<path fill="none" stroke="#000000" d="M216.4027,-171.8089C226.5567,-158.4484 238.1937,-143.1365 247.8373,-130.4476"/>
<polygon fill="#000000" stroke="#000000" points="250.8882,-132.2177 254.1524,-122.1382 245.315,-127.9821 250.8882,-132.2177"/>
<text text-anchor="middle" x="220.5544" y="-149.7042" font-family="Times,serif" font-size="14.00" fill="#000000">False</text>
</g>
<!-- 6034244464 -->
<g id="node22" class="node">
<title>6034244464</title>
<polygon fill="none" stroke="#000000" points="516.216,-136 383.659,-136 383.659,-72 516.216,-72 516.216,-136"/>
<text text-anchor="middle" x="449.9375" y="-120.8" font-family="Times,serif" font-size="14.00" fill="#000000">X[0] &lt; 0.01</text>
<text text-anchor="middle" x="449.9375" y="-106.8" font-family="Times,serif" font-size="14.00" fill="#000000">gini = 0.0</text>
<text text-anchor="middle" x="449.9375" y="-92.8" font-family="Times,serif" font-size="14.00" fill="#000000">samples = 13</text>
<text text-anchor="middle" x="449.9375" y="-78.8" font-family="Times,serif" font-size="14.00" fill="#000000">distribution = [1, 12]</text>
</g>
<!-- 8176074814&#45;&gt;6034244464 -->
<g id="edge21" class="edge">
<title>8176074814&#45;&gt;6034244464</title>
<path fill="none" stroke="#000000" d="M638.15,-171.9467C601.9886,-158.8921 560.6141,-143.9554 525.8833,-131.4173"/>
<polygon fill="#000000" stroke="#000000" points="526.8679,-128.0517 516.2735,-127.948 524.4909,-134.6357 526.8679,-128.0517"/>
<text text-anchor="middle" x="564.0117" y="-152.6648" font-family="Times,serif" font-size="14.00" fill="#000000">True</text>
</g>
<!-- 3673907292 -->
<g id="node23" class="node">
<title>3673907292</title>
<polygon fill="none" stroke="#000000" points="818.1124,-136 635.7626,-136 635.7626,-72 818.1124,-72 818.1124,-136"/>
<text text-anchor="middle" x="726.9375" y="-120.8" font-family="Times,serif" font-size="14.00" fill="#000000">X[14] &lt; 0.6479</text>
<text text-anchor="middle" x="726.9375" y="-106.8" font-family="Times,serif" font-size="14.00" fill="#000000">gini = 0.12987012987012994</text>
<text text-anchor="middle" x="726.9375" y="-92.8" font-family="Times,serif" font-size="14.00" fill="#000000">samples = 14</text>
<text text-anchor="middle" x="726.9375" y="-78.8" font-family="Times,serif" font-size="14.00" fill="#000000">distribution = [11, 3]</text>
</g>
<!-- 8176074814&#45;&gt;3673907292 -->
<g id="edge22" class="edge">
<title>8176074814&#45;&gt;3673907292</title>
<path fill="none" stroke="#000000" d="M726.9375,-171.8089C726.9375,-163.6906 726.9375,-154.8517 726.9375,-146.3186"/>
<polygon fill="#000000" stroke="#000000" points="730.4376,-146.1307 726.9375,-136.1308 723.4376,-146.1308 730.4376,-146.1307"/>
<text text-anchor="middle" x="712.1616" y="-156.7724" font-family="Times,serif" font-size="14.00" fill="#000000">False</text>
</g>
<!-- 2104729093 -->
<g id="node24" class="node">
<title>2104729093</title>
<polygon fill="none" stroke="#000000" points="1158.716,-136 1033.159,-136 1033.159,-72 1158.716,-72 1158.716,-136"/>
<text text-anchor="middle" x="1095.9375" y="-120.8" font-family="Times,serif" font-size="14.00" fill="#000000">X[0] &lt; 0.0587</text>
<text text-anchor="middle" x="1095.9375" y="-106.8" font-family="Times,serif" font-size="14.00" fill="#000000">gini = 0.0</text>
<text text-anchor="middle" x="1095.9375" y="-92.8" font-family="Times,serif" font-size="14.00" fill="#000000">samples = 4</text>
<text text-anchor="middle" x="1095.9375" y="-78.8" font-family="Times,serif" font-size="14.00" fill="#000000">distribution = [3, 1]</text>
</g>
<!-- 2025222459&#45;&gt;2104729093 -->
<g id="edge23" class="edge">
<title>2025222459&#45;&gt;2104729093</title>
<path fill="none" stroke="#000000" d="M1095.9375,-171.8089C1095.9375,-163.6906 1095.9375,-154.8517 1095.9375,-146.3186"/>
<polygon fill="#000000" stroke="#000000" points="1099.4376,-146.1307 1095.9375,-136.1308 1092.4376,-146.1308 1099.4376,-146.1307"/>
<text text-anchor="middle" x="1082.9663" y="-156.7724" font-family="Times,serif" font-size="14.00" fill="#000000">True</text>
</g>
<!-- 9624936210 -->
<g id="node25" class="node">
<title>9624936210</title>
<polygon fill="none" stroke="#000000" points="1362.216,-136 1229.659,-136 1229.659,-72 1362.216,-72 1362.216,-136"/>
<text text-anchor="middle" x="1295.9375" y="-120.8" font-family="Times,serif" font-size="14.00" fill="#000000">X[18] &lt; 0.2745</text>
<text text-anchor="middle" x="1295.9375" y="-106.8" font-family="Times,serif" font-size="14.00" fill="#000000">gini = 0.0</text>
<text text-anchor="middle" x="1295.9375" y="-92.8" font-family="Times,serif" font-size="14.00" fill="#000000">samples = 34</text>
<text text-anchor="middle" x="1295.9375" y="-78.8" font-family="Times,serif" font-size="14.00" fill="#000000">distribution = [2, 32]</text>
</g>
<!-- 2025222459&#45;&gt;9624936210 -->
<g id="edge24" class="edge">
<title>2025222459&#45;&gt;9624936210</title>
<path fill="none" stroke="#000000" d="M1160.044,-171.9467C1180.0491,-161.9442 1202.2639,-150.8368 1222.8376,-140.55"/>
<polygon fill="#000000" stroke="#000000" points="1224.4719,-143.646 1231.8509,-136.0433 1221.3414,-137.385 1224.4719,-143.646"/>
<text text-anchor="middle" x="1180.9374" y="-156.9121" font-family="Times,serif" font-size="14.00" fill="#000000">False</text>
</g>
<!-- 7425028897 -->
<g id="node26" class="node">
<title>7425028897</title>
<polygon fill="none" stroke="#000000" points="377.8126,-36 270.0624,-36 270.0624,0 377.8126,0 377.8126,-36"/>
<text text-anchor="middle" x="323.9375" y="-20.8" font-family="Times,serif" font-size="14.00" fill="#000000">samples = 1</text>
<text text-anchor="middle" x="323.9375" y="-6.8" font-family="Times,serif" font-size="14.00" fill="#000000">ratio = [0.0, 1.0]</text>
</g>
<!-- 6034244464&#45;&gt;7425028897 -->
<g id="edge25" class="edge">
<title>6034244464&#45;&gt;7425028897</title>
<path fill="none" stroke="#000000" d="M403.0198,-71.9768C388.4413,-62.0264 372.6315,-51.2356 359.0069,-41.9362"/>
<polygon fill="#000000" stroke="#000000" points="360.6367,-38.8111 350.404,-36.0644 356.6904,-44.5928 360.6367,-38.8111"/>
<text text-anchor="middle" x="363.8414" y="-56.8893" font-family="Times,serif" font-size="14.00" fill="#000000">True</text>
</g>
<!-- 2382316865 -->
<g id="node27" class="node">
<title>2382316865</title>
<polygon fill="none" stroke="#000000" points="503.8126,-36 396.0624,-36 396.0624,0 503.8126,0 503.8126,-36"/>
<text text-anchor="middle" x="449.9375" y="-20.8" font-family="Times,serif" font-size="14.00" fill="#000000">samples = 12</text>
<text text-anchor="middle" x="449.9375" y="-6.8" font-family="Times,serif" font-size="14.00" fill="#000000">ratio = [1.0, 0.0]</text>
</g>
<!-- 6034244464&#45;&gt;2382316865 -->
<g id="edge26" class="edge">
<title>6034244464&#45;&gt;2382316865</title>
<path fill="none" stroke="#000000" d="M449.9375,-71.9768C449.9375,-63.609 449.9375,-54.647 449.9375,-46.4774"/>
<polygon fill="#000000" stroke="#000000" points="453.4376,-46.3107 449.9375,-36.3108 446.4376,-46.3108 453.4376,-46.3107"/>
<text text-anchor="middle" x="435.1616" y="-56.7267" font-family="Times,serif" font-size="14.00" fill="#000000">False</text>
</g>
<!-- 6810712367 -->
<g id="node28" class="node">
<title>6810712367</title>
<polygon fill="none" stroke="#000000" points="846.3125,-36 521.5625,-36 521.5625,0 846.3125,0 846.3125,-36"/>
<text text-anchor="middle" x="683.9375" y="-20.8" font-family="Times,serif" font-size="14.00" fill="#000000">samples = 11</text>
<text text-anchor="middle" x="683.9375" y="-6.8" font-family="Times,serif" font-size="14.00" fill="#000000">ratio = [0.09090909090909091, 0.9090909090909091]</text>
</g>
<!-- 3673907292&#45;&gt;6810712367 -->
<g id="edge27" class="edge">
<title>3673907292&#45;&gt;6810712367</title>
<path fill="none" stroke="#000000" d="M710.9259,-71.9768C706.554,-63.233 701.8576,-53.8402 697.6279,-45.3808"/>
<polygon fill="#000000" stroke="#000000" points="700.6956,-43.6898 693.0929,-36.3108 694.4346,-46.8203 700.6956,-43.6898"/>
<text text-anchor="middle" x="689.1519" y="-57.1711" font-family="Times,serif" font-size="14.00" fill="#000000">True</text>
</g>
<!-- 7814714370 -->
<g id="node29" class="node">
<title>7814714370</title>
<polygon fill="none" stroke="#000000" points="971.8126,-36 864.0624,-36 864.0624,0 971.8126,0 971.8126,-36"/>
<text text-anchor="middle" x="917.9375" y="-20.8" font-family="Times,serif" font-size="14.00" fill="#000000">samples = 3</text>
<text text-anchor="middle" x="917.9375" y="-6.8" font-family="Times,serif" font-size="14.00" fill="#000000">ratio = [1.0, 0.0]</text>
</g>
<!-- 3673907292&#45;&gt;7814714370 -->
<g id="edge28" class="edge">
<title>3673907292&#45;&gt;7814714370</title>
<path fill="none" stroke="#000000" d="M798.0589,-71.9768C821.526,-61.4104 847.0979,-49.8963 868.5731,-40.2269"/>
<polygon fill="#000000" stroke="#000000" points="870.1363,-43.3616 877.8176,-36.0644 867.2623,-36.9787 870.1363,-43.3616"/>
<text text-anchor="middle" x="823.2182" y="-56.7955" font-family="Times,serif" font-size="14.00" fill="#000000">False</text>
</g>
<!-- 4151781008 -->
<g id="node30" class="node">
<title>4151781008</title>
<polygon fill="none" stroke="#000000" points="1097.8126,-36 990.0624,-36 990.0624,0 1097.8126,0 1097.8126,-36"/>
<text text-anchor="middle" x="1043.9375" y="-20.8" font-family="Times,serif" font-size="14.00" fill="#000000">samples = 3</text>
<text text-anchor="middle" x="1043.9375" y="-6.8" font-family="Times,serif" font-size="14.00" fill="#000000">ratio = [1.0, 0.0]</text>
</g>
<!-- 2104729093&#45;&gt;4151781008 -->
<g id="edge29" class="edge">
<title>2104729093&#45;&gt;4151781008</title>
<path fill="none" stroke="#000000" d="M1076.5746,-71.9768C1071.2308,-63.1389 1065.4861,-53.6381 1060.3285,-45.1082"/>
<polygon fill="#000000" stroke="#000000" points="1063.1784,-43.0571 1055.0091,-36.3108 1057.1883,-46.6791 1063.1784,-43.0571"/>
<text text-anchor="middle" x="1052.8441" y="-56.9825" font-family="Times,serif" font-size="14.00" fill="#000000">True</text>
</g>
<!-- 7487935945 -->
<g id="node31" class="node">
<title>7487935945</title>
<polygon fill="none" stroke="#000000" points="1223.8126,-36 1116.0624,-36 1116.0624,0 1223.8126,0 1223.8126,-36"/>
<text text-anchor="middle" x="1169.9375" y="-20.8" font-family="Times,serif" font-size="14.00" fill="#000000">samples = 1</text>
<text text-anchor="middle" x="1169.9375" y="-6.8" font-family="Times,serif" font-size="14.00" fill="#000000">ratio = [0.0, 1.0]</text>
</g>
<!-- 2104729093&#45;&gt;7487935945 -->
<g id="edge30" class="edge">
<title>2104729093&#45;&gt;7487935945</title>
<path fill="none" stroke="#000000" d="M1123.4924,-71.9768C1131.4206,-62.7629 1139.9689,-52.8283 1147.5442,-44.0247"/>
<polygon fill="#000000" stroke="#000000" points="1150.3123,-46.1737 1154.1817,-36.3108 1145.0062,-41.608 1150.3123,-46.1737"/>
<text text-anchor="middle" x="1124.2982" y="-56.6684" font-family="Times,serif" font-size="14.00" fill="#000000">False</text>
</g>
<!-- 9875473854 -->
<g id="node32" class="node">
<title>9875473854</title>
<polygon fill="none" stroke="#000000" points="1349.8126,-36 1242.0624,-36 1242.0624,0 1349.8126,0 1349.8126,-36"/>
<text text-anchor="middle" x="1295.9375" y="-20.8" font-family="Times,serif" font-size="14.00" fill="#000000">samples = 2</text>
<text text-anchor="middle" x="1295.9375" y="-6.8" font-family="Times,serif" font-size="14.00" fill="#000000">ratio = [1.0, 0.0]</text>
</g>
<!-- 9624936210&#45;&gt;9875473854 -->
<g id="edge31" class="edge">
<title>9624936210&#45;&gt;9875473854</title>
<path fill="none" stroke="#000000" d="M1295.9375,-71.9768C1295.9375,-63.609 1295.9375,-54.647 1295.9375,-46.4774"/>
<polygon fill="#000000" stroke="#000000" points="1299.4376,-46.3107 1295.9375,-36.3108 1292.4376,-46.3108 1299.4376,-46.3107"/>
<text text-anchor="middle" x="1282.9663" y="-56.7267" font-family="Times,serif" font-size="14.00" fill="#000000">True</text>
</g>
<!-- 7876318398 -->
<g id="node33" class="node">
<title>7876318398</title>
<polygon fill="none" stroke="#000000" points="1475.8126,-36 1368.0624,-36 1368.0624,0 1475.8126,0 1475.8126,-36"/>
<text text-anchor="middle" x="1421.9375" y="-20.8" font-family="Times,serif" font-size="14.00" fill="#000000">samples = 32</text>
<text text-anchor="middle" x="1421.9375" y="-6.8" font-family="Times,serif" font-size="14.00" fill="#000000">ratio = [0.0, 1.0]</text>
</g>
<!-- 9624936210&#45;&gt;7876318398 -->
<g id="edge32" class="edge">
<title>9624936210&#45;&gt;7876318398</title>
<path fill="none" stroke="#000000" d="M1342.8552,-71.9768C1357.4337,-62.0264 1373.2435,-51.2356 1386.8681,-41.9362"/>
<polygon fill="#000000" stroke="#000000" points="1389.1846,-44.5928 1395.471,-36.0644 1385.2383,-38.8111 1389.1846,-44.5928"/>
<text text-anchor="middle" x="1354.2865" y="-56.8893" font-family="Times,serif" font-size="14.00" fill="#000000">False</text>
</g>
</g>
</svg>
